<?xml version="1.0" encoding="UTF-8" standalone="no"?>
<!-- Created with Inkscape (http://www.inkscape.org/) -->

<svg
   width="16.350868mm"
   height="16.430302mm"
   viewBox="0 0 16.350868 16.430302"
   version="1.1"
   id="svg5"
   inkscape:version="1.1 (c68e22c387, 2021-05-23)"
   sodipodi:docname="ayuda.svg"
   xmlns:inkscape="http://www.inkscape.org/namespaces/inkscape"
   xmlns:sodipodi="http://sodipodi.sourceforge.net/DTD/sodipodi-0.dtd"
   xmlns="http://www.w3.org/2000/svg"
   xmlns:svg="http://www.w3.org/2000/svg">
  <sodipodi:namedview
     id="namedview7"
     pagecolor="#ffffff"
     bordercolor="#666666"
     borderopacity="1.0"
     inkscape:pageshadow="2"
     inkscape:pageopacity="0.0"
     inkscape:pagecheckerboard="0"
     inkscape:document-units="mm"
     showgrid="false"
     fit-margin-top="0"
     fit-margin-left="0"
     fit-margin-right="0"
     fit-margin-bottom="0"
     inkscape:zoom="10.732997"
     inkscape:cx="37.734103"
     inkscape:cy="35.544593"
     inkscape:window-width="2560"
     inkscape:window-height="1494"
     inkscape:window-x="-11"
     inkscape:window-y="-11"
     inkscape:window-maximized="1"
     inkscape:current-layer="layer1" />
  <defs
     id="defs2" />
  <g
     inkscape:label="Capa 1"
     inkscape:groupmode="layer"
     id="layer1"
     transform="translate(-105.005,-123.94241)">
    <path
       style="fill:#000000;stroke-width:0.264583"
       d="m 111.19858,140.12265 c -3.94613,-1.10063 -6.20472,-4.06032 -6.19354,-8.11611 0.009,-3.29129 1.62892,-5.88398 4.58226,-7.33431 1.23906,-0.60848 1.84035,-0.73448 3.48206,-0.72969 2.41898,0.007 3.58169,0.38727 5.27326,1.72438 1.90582,1.50646 3.0183,3.8773 3.01323,6.42156 -0.005,2.42154 -0.72574,4.15865 -2.4141,5.81702 -2.10329,2.06595 -5.15371,2.93939 -7.74317,2.21715 z m 2.88137,-4.31723 c 0.36756,-0.6568 0.0611,-1.40419 -0.64877,-1.58236 -1.1102,-0.27864 -1.88561,0.91635 -1.10265,1.69931 0.45777,0.45778 1.46752,0.39035 1.75142,-0.11695 z m 0.66904,-3.84651 c 0.92482,-0.83103 1.23079,-1.29577 1.23079,-1.86948 0,-1.09575 -0.39814,-1.68961 -1.35682,-2.02381 -2.24918,-0.78407 -4.85183,0.24118 -4.29511,1.69196 0.16804,0.43791 1.41859,0.55453 1.41859,0.13229 0,-0.14552 0.59532,-0.26458 1.32292,-0.26458 1.6369,0 1.72596,0.42897 0.26255,1.26467 -0.75172,0.42928 -1.0563,0.77895 -1.0563,1.21268 0,1.34072 0.87817,1.28969 2.47338,-0.14373 z"
       id="path113" />
    <path
       style="fill:#23407b;stroke-width:0.0931706"
       d="M 27.62509,61.911019 C 22.630668,61.294676 17.200154,59.229377 12.904132,56.312436 5.5247888,51.301964 1.219394,43.822023 0.23375154,34.299659 0.06697531,32.688421 0.04240034,28.929183 0.18859572,27.392164 0.72094355,21.795346 2.5205921,16.782666 5.4837488,12.643225 7.9012434,9.2660568 11.147499,6.3442073 15.011919,4.067227 c 1.054656,-0.6214208 3.527092,-1.8548857 4.668677,-2.3291405 1.96238,-0.81524152 3.673945,-1.25731343 5.89474,-1.52252372 1.542528,-0.1842107 8.03063,-0.15419379 9.969257,0.0461223 C 41.461769,0.8731 45.320872,2.5238196 50.461966,6.642547 c 8.38778,6.719773 12.48377,17.54372 10.981827,29.02027 -0.853327,6.520383 -3.503485,11.731638 -8.518652,16.751027 -4.985335,4.989532 -11.101598,8.145262 -17.986157,9.280087 -1.255016,0.206872 -1.785795,0.241945 -4.052922,0.26781 -1.434828,0.01637 -2.902265,-0.0065 -3.260972,-0.05072 z M 32.635638,46.18915 c 1.466718,-0.537228 2.229392,-1.714845 2.247587,-3.470419 0.0111,-1.071069 -0.157573,-1.62645 -0.730212,-2.404327 -0.651827,-0.885443 -1.63627,-1.432934 -2.890142,-1.607331 -1.887583,-0.262539 -3.682721,0.661016 -4.492946,2.311513 -0.237805,0.484429 -0.262882,0.629021 -0.262882,1.515764 0,0.921304 0.01855,1.017924 0.308427,1.606755 0.540262,1.097428 1.431287,1.825253 2.651096,2.165523 0.729033,0.203366 2.469237,0.138857 3.169072,-0.117478 z M 31.4184,34.155711 c 1.928871,-0.812562 4.750854,-2.980994 7.298863,-5.608503 1.159124,-1.195289 1.645489,-1.812358 2.122076,-2.69236 0.528282,-0.975454 0.664434,-1.564094 0.657282,-2.841704 -0.0236,-4.215393 -1.687081,-6.429725 -5.765686,-7.674952 -4.691307,-1.432289 -10.198573,-0.924111 -13.456379,1.241674 -0.820973,0.545782 -1.763705,1.549338 -2.076981,2.210987 -0.50515,1.066892 -0.531212,2.338445 -0.06744,3.290585 0.329142,0.675744 1.279266,1.169378 2.621549,1.362017 1.403487,0.201422 2.533732,-0.109828 2.742319,-0.755187 0.150071,-0.464317 0.435613,-0.633921 1.435447,-0.852619 0.695483,-0.152125 1.337106,-0.202956 3.03429,-0.240384 2.968144,-0.06546 4.457962,0.148848 5.081039,0.730889 0.800104,0.747408 -0.215494,1.848075 -3.561538,3.859862 -3.409882,2.05017 -4.210813,3.146991 -3.995758,5.471924 0.134862,1.457959 0.52094,2.261352 1.287526,2.679219 0.539158,0.293895 1.704979,0.213871 2.643395,-0.181448 z"
       id="path2585"
       transform="matrix(0.26458333,0,0,0.26458333,105.005,123.94241)" />
  </g>
</svg>
