<?xml version="1.0" encoding="UTF-8" standalone="no"?>
<!-- Created with Inkscape (http://www.inkscape.org/) -->

<svg
   width="21.157816mm"
   height="21.000002mm"
   viewBox="0 0 21.157816 21.000002"
   version="1.1"
   id="svg5"
   inkscape:version="1.1 (c68e22c387, 2021-05-23)"
   sodipodi:docname="calificacion.svg"
   xmlns:inkscape="http://www.inkscape.org/namespaces/inkscape"
   xmlns:sodipodi="http://sodipodi.sourceforge.net/DTD/sodipodi-0.dtd"
   xmlns="http://www.w3.org/2000/svg"
   xmlns:svg="http://www.w3.org/2000/svg">
  <sodipodi:namedview
     id="namedview7"
     pagecolor="#ffffff"
     bordercolor="#666666"
     borderopacity="1.0"
     inkscape:pageshadow="2"
     inkscape:pageopacity="0.0"
     inkscape:pagecheckerboard="0"
     inkscape:document-units="mm"
     showgrid="false"
     fit-margin-top="0"
     fit-margin-left="0"
     fit-margin-right="0"
     fit-margin-bottom="0"
     inkscape:zoom="3.7946873"
     inkscape:cx="-21.082106"
     inkscape:cy="116.08334"
     inkscape:window-width="2560"
     inkscape:window-height="1494"
     inkscape:window-x="-11"
     inkscape:window-y="-11"
     inkscape:window-maximized="1"
     inkscape:current-layer="layer1" />
  <defs
     id="defs2" />
  <g
     inkscape:label="Capa 1"
     inkscape:groupmode="layer"
     id="layer1"
     transform="translate(-114.42922,-91.651185)">
    <path
       style="fill:#000000;stroke-width:0.191028"
       d="m 119.68497,110.16043 c -2.728,-1.36265 -5.0262,-2.58169 -5.10709,-2.70897 -0.17259,-0.27158 -0.20774,-14.09797 -0.037,-14.542966 0.16469,-0.42917 0.70753,-0.375323 1.80069,0.178622 l 0.94879,0.480786 v -0.76061 c 0,-1.422813 0.31337,-1.37976 4.24664,0.583468 l 3.4968,1.745372 3.48087,-1.742477 c 1.91448,-0.958358 3.51862,-1.74247 3.56475,-1.74247 0.30009,0 0.68426,0.703616 0.68426,1.253251 v 0.652882 l 1.05688,-0.518344 c 1.79749,-0.881574 1.70565,-1.24905 1.75917,7.038236 0.0254,3.92855 -0.0176,7.23993 -0.0955,7.35863 -0.20684,0.31513 -10.10707,5.23088 -10.50354,5.21531 -0.18464,-0.007 -2.56772,-1.12808 -5.29573,-2.49072 z m 9.89141,-1.21796 4.51385,-2.19365 0.0531,-5.94368 c 0.0292,-3.269028 0.002,-6.026245 -0.0605,-6.127159 -0.0676,-0.109303 -0.39471,-0.04946 -0.80895,0.148111 l -0.69534,0.331585 -0.0507,5.301113 -0.0507,5.30111 -3.77736,1.87169 -3.77735,1.87169 -3.72052,-1.85735 -3.72052,-1.85737 v -5.34942 c 0,-2.942197 -0.0325,-5.349439 -0.0722,-5.349439 -0.0397,0 -0.38355,-0.130097 -0.76411,-0.28911 l -0.69193,-0.289102 v 5.975901 5.9759 l 4.3459,2.32289 c 2.39024,1.27759 4.43984,2.32898 4.55467,2.3364 0.11482,0.007 2.24,-0.97361 4.72263,-2.18011 z m -5.21794,-6.97447 v -5.538553 l -2.67185,-1.338476 c -1.46952,-0.736156 -2.71599,-1.338476 -2.76992,-1.338476 -0.0539,0 -0.0981,2.492323 -0.0981,5.538498 v 5.538497 l 2.62664,1.32853 c 1.44466,0.73069 2.69112,1.33303 2.76992,1.33854 0.0788,0.006 0.14327,-2.48235 0.14327,-5.52856 z m 4.2694,4.20136 2.60758,-1.24168 2e-5,-5.587591 c 2e-5,-3.073178 -0.0441,-5.587594 -0.098,-5.587594 -0.0539,0 -1.30039,0.60232 -2.76992,1.338476 l -2.67185,1.338476 v 5.554473 c 0,3.05496 0.073,5.52583 0.16231,5.49081 0.0893,-0.035 1.33572,-0.62244 2.76989,-1.30537 z"
       id="path836" />
    <path
       style="fill:#23407b;stroke-width:0.263526"
       d="M 34.785475,77.028056 C 23.278206,71.644066 2.003851,60.73795 0.92234213,59.66841 0.40208322,59.153909 0.39528948,58.797766 0.39528948,32.039101 c 0,-26.2875215 0.0151961,-27.1248874 0.50201438,-27.6630293 0.28455814,-0.3145582 0.82416944,-0.55494 1.24573394,-0.55494 0.9436118,0 3.4349604,0.9357021 6.2180734,2.3353876 1.1925333,0.5997501 2.2894618,1.0904546 2.4376188,1.0904546 0.165606,0 0.269376,-1.0197742 0.269376,-2.6472419 0,-2.4592831 0.04593,-2.693168 0.646837,-3.2940788 0.78243,-0.78243052 0.709414,-0.78019362 2.948891,-0.090341 2.175861,0.6702562 7.655618,3.2246684 17.79367,8.2945944 L 40.011768,13.28771 53.397398,6.6801693 C 63.239953,1.8215935 66.89042,0.13670908 67.188763,0.31472424 c 0.223157,0.1331529 0.731852,0.87924376 1.130436,1.65797966 0.595643,1.1637453 0.724697,1.759431 0.724697,3.3450768 0,1.0610563 0.112508,1.9291932 0.250018,1.9291932 0.137508,0 1.824035,-0.7763657 3.747832,-1.7252573 4.086777,-2.0157545 4.832775,-2.1022346 5.54686,-0.6430198 0.969814,1.9817883 1.092391,5.3182782 1.110566,30.2287382 0.01729,23.70662 0.01025,24.046332 -0.509512,24.54548 -0.824946,0.792233 -6.057371,3.542455 -18.80074,9.881881 -12.748347,6.3419 -19.098491,9.328149 -20.255466,9.52543 -0.541291,0.0923 -1.957542,-0.445863 -5.347979,-2.03217 z m 11.858684,-6.467241 c 3.406078,-1.585488 11.012894,-5.226139 16.904038,-8.090338 10.158402,-4.938883 10.719389,-5.248732 10.870461,-6.004086 0.208523,-1.042621 0.20788,-44.306213 -7.91e-4,-44.84968 -0.261373,-0.681128 -1.635945,-0.490582 -3.805499,0.527529 l -2.012421,0.94437 -0.172805,6.500248 c -0.09504,3.575136 -0.173063,11.195457 -0.173377,16.934046 -2.63e-4,5.738588 -0.0775,11.864445 -0.171516,13.613016 L 67.911302,53.315141 53.796617,60.295133 39.681931,67.275129 25.638606,60.254869 11.595158,53.234612 V 33.831338 c 0,-10.671799 -0.06996,-19.753061 -0.155462,-20.180581 -0.153594,-0.767969 -1.02149,-1.224395 -5.4459413,-2.864012 -0.4392462,-0.162776 -0.4592344,0.97921 -0.3952895,22.584107 l 0.067351,22.755551 10.2775258,5.486668 c 18.787646,10.029804 22.841187,12.071271 23.717369,11.944676 0.434819,-0.06283 3.57737,-1.411445 6.983448,-2.996932 z M 37.264767,59.095778 c 0.09206,-0.471054 0.239896,-9.930365 0.328533,-21.020691 l 0.161154,-20.164228 -10.332759,-5.0922 C 21.738677,10.017949 17.009058,7.8061161 16.911429,7.9034741 16.697089,8.1172189 16.414996,24.440614 16.370788,39.187792 l -0.03216,10.72695 10.052401,5.018748 c 5.528822,2.760312 10.199544,5.018748 10.37938,5.018748 0.179838,0 0.402299,-0.385407 0.494354,-0.85646 z m 16.231076,-3.970849 10.145764,-4.810381 0.06547,-7.632773 C 63.790968,32.901051 63.432243,8.1352407 63.20337,7.9065913 63.107278,7.8105945 58.377539,10.021969 52.692839,12.820756 l -10.335816,5.088705 0.17042,19.901401 c 0.161784,18.892761 0.257913,22.152571 0.652673,22.132912 0.09348,-0.0047 4.735558,-2.173136 10.315727,-4.818845 z"
       id="path973"
       transform="matrix(0.26458333,0,0,0.26458333,114.42922,91.651185)" />
  </g>
</svg>
