<?xml version="1.0" encoding="UTF-8" standalone="no"?>
<!-- Created with Inkscape (http://www.inkscape.org/) -->

<svg
   width="12.038797mm"
   height="13.653275mm"
   viewBox="0 0 12.038797 13.653275"
   version="1.1"
   id="svg221"
   inkscape:version="1.1 (c68e22c387, 2021-05-23)"
   sodipodi:docname="campana.svg"
   xmlns:inkscape="http://www.inkscape.org/namespaces/inkscape"
   xmlns:sodipodi="http://sodipodi.sourceforge.net/DTD/sodipodi-0.dtd"
   xmlns="http://www.w3.org/2000/svg"
   xmlns:svg="http://www.w3.org/2000/svg">
  <sodipodi:namedview
     id="namedview223"
     pagecolor="#ffffff"
     bordercolor="#666666"
     borderopacity="1.0"
     inkscape:pageshadow="2"
     inkscape:pageopacity="0.0"
     inkscape:pagecheckerboard="0"
     inkscape:document-units="mm"
     showgrid="false"
     fit-margin-top="0"
     fit-margin-left="0"
     fit-margin-right="0"
     fit-margin-bottom="0"
     inkscape:zoom="6.1178624"
     inkscape:cx="66.526504"
     inkscape:cy="62.03147"
     inkscape:window-width="2560"
     inkscape:window-height="1494"
     inkscape:window-x="-11"
     inkscape:window-y="-11"
     inkscape:window-maximized="1"
     inkscape:current-layer="layer1" />
  <defs
     id="defs218" />
  <g
     inkscape:label="Capa 1"
     inkscape:groupmode="layer"
     id="layer1"
     transform="translate(-98.622732,-113.02344)">
    <path
       style="fill:#000000;stroke-width:0.264583"
       d="m 103.42649,126.19928 c -0.79713,-0.88082 -0.54,-1.10365 1.27361,-1.10365 1.77962,0 1.95037,0.19068 1.12546,1.25677 -0.38595,0.4988 -1.89633,0.4024 -2.39907,-0.15312 z m -4.790274,-2.40515 c -0.08266,-0.13375 0.223416,-0.84434 0.680165,-1.57909 0.642849,-1.03413 0.873229,-1.77276 1.019789,-3.26962 0.10413,-1.06354 0.32413,-2.18557 0.48888,-2.49341 0.36948,-0.69039 1.71808,-1.84663 2.40995,-2.06623 0.28261,-0.0897 0.55114,-0.42534 0.59674,-0.74588 0.11413,-0.80224 1.37048,-0.8301 1.48442,-0.0329 0.0497,0.34804 0.46017,0.71823 1.11809,1.00851 1.53365,0.67664 2.08145,1.63532 2.48745,4.35313 0.25388,1.69948 0.54502,2.63946 1.04582,3.37645 0.38171,0.56172 0.69401,1.17227 0.69401,1.35677 0,0.26092 -1.31927,0.33546 -5.93751,0.33546 -3.3244,0 -6.003658,-0.10702 -6.087804,-0.24317 z m 9.726054,-1.80735 c -0.2311,-0.5457 -0.50718,-1.85866 -0.61352,-2.91768 -0.21326,-2.12368 -0.62184,-2.80263 -2.05039,-3.40717 -1.47405,-0.6238 -3.30098,0.15314 -3.93647,1.67408 -0.19843,0.4749 -0.36339,1.43283 -0.36659,2.12873 -0.003,0.6959 -0.2355,1.77128 -0.51623,2.38975 l -0.51042,1.12448 h 4.2069 4.20689 z"
       id="path317" />
    <path
       style="fill:#23407b;stroke-width:0.163456"
       d="M 12.014,41.424026 C 6.8861245,41.310993 2.2695478,41.06951 0.77641498,40.836209 0.26083035,40.75565 0.16345578,40.676776 0.16345578,40.339703 c 0,-0.787733 1.41763452,-3.810107 2.85541452,-6.087699 C 3.6042488,33.324705 4.5810092,31.329227 5.0187807,30.166277 5.6699582,28.436409 6.0242082,26.651371 6.5445695,22.477952 7.3832555,15.751494 7.8955529,13.629336 9.0637367,12.042471 10.795524,9.6900046 14.372365,6.7163021 17.043535,5.4082524 18.817947,4.5393376 19.275089,4.0316096 19.777731,2.3714915 20.137664,1.1827108 20.43825,0.79908785 21.33098,0.38914427 c 0.835697,-0.38375387 1.620613,-0.38078244 2.479958,0.009388 0.793188,0.36013333 1.103012,0.77578663 1.450527,1.94599853 0.440488,1.4832829 1.46615,2.379999 4.356991,3.8092355 2.243637,1.1092576 3.312831,1.8635321 4.576854,3.2287946 2.319609,2.5053931 3.323934,5.3384831 4.637785,13.0826961 1.274888,7.514549 1.928096,9.556081 4.234485,13.234413 1.182484,1.885878 2.036238,3.523631 2.289096,4.391161 0.258178,0.885782 -1.679147,1.138766 -10.29541,1.344419 C 27.74237,41.609939 20.283384,41.606305 12.014,41.424021 Z m 26.398109,-3.896427 c 0,-0.08193 -0.36343,-0.997742 -0.807625,-2.035147 -0.444193,-1.037403 -0.99861,-2.490767 -1.232038,-3.229698 C 35.811972,30.48854 35.05139,26.670987 34.731811,24.028 33.936563,17.451107 33.406196,15.520418 31.789907,13.318591 30.752748,11.905698 28.181296,10.28834 25.744286,9.5160967 24.082864,8.9896231 21.172112,8.9989747 19.451238,9.536315 c -3.434552,1.072434 -5.89281,3.131767 -7.347842,6.15544 -0.993993,2.065598 -1.421133,4.302539 -1.794666,9.398708 -0.279961,3.81956 -0.9436202,6.247538 -2.8517908,10.433203 -0.5052894,1.108376 -0.9187078,2.046203 -0.9187078,2.084061 0,0.03786 7.1716226,0.06883 15.9369386,0.06883 9.481611,0 15.936939,-0.06034 15.936939,-0.148958 z"
       id="path2396"
       transform="matrix(0.26458333,0,0,0.26458333,98.622732,113.02344)" />
    <path
       style="fill:#23407b;stroke-width:0.163456"
       d="m 22.47517,51.477478 c -0.179801,-0.04062 -0.731464,-0.154317 -1.225918,-0.252664 -0.494454,-0.09835 -1.321126,-0.401654 -1.837051,-0.674014 -1.309362,-0.691223 -2.737826,-2.487226 -2.7391,-3.443861 -5.16e-4,-0.38773 0.114962,-0.509818 0.746415,-0.78914 1.057862,-0.467943 3.601297,-0.686254 6.77194,-0.581257 5.054849,0.167393 5.638133,0.769284 3.582344,3.69662 -0.679188,0.967129 -0.991967,1.260343 -1.677373,1.572449 -0.821837,0.374231 -2.8713,0.641286 -3.621257,0.471867 z"
       id="path2435"
       transform="matrix(0.26458333,0,0,0.26458333,98.622732,113.02344)" />
  </g>
</svg>
