<?xml version="1.0" encoding="UTF-8" standalone="no"?>
<!-- Created with Inkscape (http://www.inkscape.org/) -->

<svg
   width="21.43779mm"
   height="21.608992mm"
   viewBox="0 0 21.43779 21.608992"
   version="1.1"
   id="svg5"
   inkscape:version="1.1 (c68e22c387, 2021-05-23)"
   sodipodi:docname="cuestionario.svg"
   xmlns:inkscape="http://www.inkscape.org/namespaces/inkscape"
   xmlns:sodipodi="http://sodipodi.sourceforge.net/DTD/sodipodi-0.dtd"
   xmlns="http://www.w3.org/2000/svg"
   xmlns:svg="http://www.w3.org/2000/svg">
  <sodipodi:namedview
     id="namedview7"
     pagecolor="#ffffff"
     bordercolor="#666666"
     borderopacity="1.0"
     inkscape:pageshadow="2"
     inkscape:pageopacity="0.0"
     inkscape:pagecheckerboard="true"
     inkscape:document-units="mm"
     showgrid="false"
     fit-margin-top="0"
     fit-margin-left="0"
     fit-margin-right="0"
     fit-margin-bottom="0"
     inkscape:zoom="5.3664983"
     inkscape:cx="-6.3356025"
     inkscape:cy="49.846284"
     inkscape:window-width="2560"
     inkscape:window-height="1494"
     inkscape:window-x="-11"
     inkscape:window-y="-11"
     inkscape:window-maximized="1"
     inkscape:current-layer="layer1" />
  <defs
     id="defs2" />
  <g
     inkscape:label="Capa 1"
     inkscape:groupmode="layer"
     id="layer1"
     transform="translate(-135.6013,-128.47241)">
    <path
       style="fill:#000000;stroke-width:0.264583"
       d="m 135.89139,149.56967 c -0.41352,-0.77267 -0.37243,-20.18594 0.0436,-20.60198 0.2298,-0.2298 2.12214,-0.3175 6.85086,-0.3175 5.56335,0 6.55597,0.0589 6.68565,0.39688 0.4279,1.11509 0.12944,1.17727 -6.00905,1.25178 l -5.86059,0.0711 -0.0697,8.92968 -0.0697,8.92969 h 8.86707 8.86706 l 0.004,-4.69635 c 0.002,-2.583 0.105,-4.8556 0.22836,-5.05024 0.12337,-0.19463 0.5085,-0.31369 0.85585,-0.26458 l 0.63154,0.0893 0.0716,5.52255 c 0.0499,3.85035 -0.02,5.6329 -0.23083,5.88698 -0.24725,0.29792 -2.15389,0.36442 -10.4472,0.36442 -9.75903,0 -10.15517,-0.0195 -10.41865,-0.51177 z m 7.60531,-8.68464 c -2.10936,-1.5688 -2.47794,-2.06926 -2.19066,-2.97442 0.26579,-0.83742 1.39659,-0.64696 3.05163,0.51399 l 1.48712,1.04315 4.72264,-5.39839 c 2.59745,-2.96911 4.88884,-5.46217 5.09198,-5.54012 0.64836,-0.2488 1.39001,0.35462 1.37957,1.12245 -0.008,0.55295 -1.2306,2.08869 -5.31317,6.67142 -2.91687,3.27422 -5.50208,5.98193 -5.74492,6.01713 -0.24283,0.0352 -1.36072,-0.61965 -2.48419,-1.45521 z"
       id="path836" />
    <path
       style="fill:#23407b;stroke-width:0.186341"
       d="M 7.9157683,81.325556 C 3.1408926,81.098421 1.6811217,80.721093 1.2093805,79.592057 0.50408459,77.904046 0.18985143,66.546463 0.19048576,42.765317 0.19097973,24.245797 0.3570814,13.787864 0.75710619,7.0903011 0.98858984,3.2146012 1.1533944,2.1551637 1.5724786,1.8487218 2.6828297,1.0368133 10.158654,0.79147113 30.746306,0.89129306 c 17.694276,0.085793 19.663478,0.16174734 20.910362,0.80653654 0.644221,0.3331389 1.077906,1.254097 1.077906,2.2889975 0,1.2793072 -1.222492,1.8692485 -4.658532,2.2480799 C 45.614497,6.5062982 34.377983,6.7907507 19.907361,6.9479977 13.177283,7.0211311 7.6290897,7.1228943 7.5780425,7.1741381 7.526995,7.225382 7.3961279,19.132588 7.2872268,33.634596 7.1783256,48.136603 7.0407308,63.335062 6.9814607,67.408947 L 6.8736968,74.816012 H 40.496139 74.118583 L 74.220005,59.675785 C 74.312151,45.92007 74.483909,40.413983 74.880691,38.4959 75.144246,37.221845 76.44892,36.755989 78.94028,37.046347 l 1.515491,0.176626 0.142982,9.619213 c 0.304334,20.474507 0.147878,30.807213 -0.496501,32.790145 -0.382316,1.176492 -1.834395,1.42722 -9.862666,1.702962 -6.121205,0.210241 -57.86934,0.202158 -62.3238177,-0.0097 z"
       id="path859"
       transform="matrix(0.26458333,0,0,0.26458333,135.6013,128.47241)" />
    <path
       style="fill:#23407b;stroke-width:0.186341"
       d="m 37.173839,51.510986 c -1.986458,-1.015884 -5.218522,-3.158393 -8.340168,-5.528627 -6.260139,-4.753264 -7.830576,-6.743619 -7.372845,-9.344274 0.771588,-4.383885 4.819537,-3.662614 13.47626,2.401223 2.04871,1.435075 3.774298,2.587978 3.834641,2.56201 0.06034,-0.02597 4.249395,-4.784946 9.309004,-10.5755 C 65.73117,10.82548 74.638395,0.99451577 75.864865,0.36028376 77.87463,-0.67900566 80.872102,1.623278 80.872102,4.2062166 c 0,0.8676751 -0.514825,2.001452 -1.705363,3.7556497 C 74.10413,15.421361 40.78804,52.268721 39.106037,52.268721 c -0.24779,0 -1.117279,-0.340981 -1.932198,-0.757735 z"
       id="path898"
       transform="matrix(0.26458333,0,0,0.26458333,135.6013,128.47241)" />
  </g>
</svg>
