<?xml version="1.0" encoding="UTF-8" standalone="no"?>
<!-- Created with Inkscape (http://www.inkscape.org/) -->

<svg
   width="23.657488mm"
   height="21.27721mm"
   viewBox="0 0 23.657488 21.27721"
   version="1.1"
   id="svg5"
   inkscape:version="1.1 (c68e22c387, 2021-05-23)"
   sodipodi:docname="foro.svg"
   xmlns:inkscape="http://www.inkscape.org/namespaces/inkscape"
   xmlns:sodipodi="http://sodipodi.sourceforge.net/DTD/sodipodi-0.dtd"
   xmlns="http://www.w3.org/2000/svg"
   xmlns:svg="http://www.w3.org/2000/svg">
  <sodipodi:namedview
     id="namedview7"
     pagecolor="#ffffff"
     bordercolor="#666666"
     borderopacity="1.0"
     inkscape:pageshadow="2"
     inkscape:pageopacity="0.0"
     inkscape:pagecheckerboard="0"
     inkscape:document-units="mm"
     showgrid="false"
     fit-margin-top="0"
     fit-margin-left="0"
     fit-margin-right="0"
     fit-margin-bottom="0"
     inkscape:zoom="5.3664983"
     inkscape:cx="111.24573"
     inkscape:cy="112.2706"
     inkscape:window-width="2560"
     inkscape:window-height="1494"
     inkscape:window-x="-11"
     inkscape:window-y="-11"
     inkscape:window-maximized="1"
     inkscape:current-layer="layer1" />
  <defs
     id="defs2" />
  <g
     inkscape:label="Capa 1"
     inkscape:groupmode="layer"
     id="layer1"
     transform="translate(-109.70708,-131.02837)">
    <path
       style="fill:#000000;stroke-width:0.208885"
       d="m 118.76158,150.39037 -2.43321,-1.91384 -2.14928,-0.0712 c -1.96524,-0.0651 -2.21661,-0.12006 -2.9358,-0.64164 -1.53155,-1.11069 -1.53621,-1.13522 -1.53621,-8.09737 v -6.22462 l 0.51646,-0.71603 c 0.28405,-0.39381 0.85559,-0.93682 1.27009,-1.20666 l 0.75362,-0.49064 h 9.26484 9.26483 l 0.82365,0.63239 c 1.65113,1.2677 1.67237,1.3571 1.75032,7.36722 0.0434,3.34741 -0.0179,5.7399 -0.16378,6.38595 -0.49968,2.21344 -1.74335,3.01996 -4.66556,3.02564 l -1.88377,0.005 -2.43215,1.93051 c -1.33767,1.06177 -2.56234,1.9305 -2.72149,1.9305 -0.15914,0 -1.3843,-0.86122 -2.72256,-1.91383 z m 5.26512,-1.9256 1.88948,-1.45407 1.53952,-0.003 c 2.20123,-0.004 3.06969,-0.18358 3.68122,-0.76454 l 0.5372,-0.51033 v -5.97514 -5.97513 l -0.62536,-0.6649 -0.62536,-0.6649 h -8.92912 -8.92914 l -0.62534,0.6649 -0.62537,0.6649 v 5.8979 5.89787 l 0.6075,0.64592 c 0.59739,0.63517 0.6461,0.64755 2.92817,0.74397 l 2.32067,0.0981 2.16174,1.67582 c 1.79885,1.39448 2.21573,1.63386 2.48323,1.4259 0.17681,-0.13744 1.17174,-0.90423 2.21096,-1.70398 z m -10.27252,-5.20872 c -0.0653,-0.16143 -0.0851,-0.4592 -0.044,-0.6617 0.0693,-0.34256 0.47216,-0.37195 5.78901,-0.42238 5.61027,-0.0533 5.71704,-0.0465 5.85488,0.36607 0.32044,0.95912 0.0133,1.01151 -5.92872,1.01151 -4.63795,0 -5.57214,-0.0483 -5.67116,-0.2935 z m -0.0159,-3.29711 c -0.0741,-0.1832 -0.0364,-0.48096 0.0837,-0.6617 0.19161,-0.28857 0.89156,-0.32863 5.74361,-0.32863 4.85204,0 5.552,0.0401 5.74361,0.32863 0.12001,0.18074 0.15765,0.4785 0.0837,0.6617 -0.11989,0.29678 -0.75455,0.33306 -5.82728,0.33306 -5.07272,0 -5.70738,-0.0363 -5.82726,-0.33306 z m 0.13307,-3.04337 c -0.20424,-0.23377 -0.21986,-0.41573 -0.0568,-0.66168 0.18936,-0.28563 0.70121,-0.34814 3.23956,-0.39562 2.8889,-0.0541 3.02056,-0.0388 3.15581,0.36606 0.29008,0.86826 -0.1714,1.01372 -3.21611,1.01372 -2.33047,0 -2.89135,-0.0579 -3.12244,-0.32248 z"
       id="path836" />
    <path
       style="fill:#23407b;stroke-width:0.186341"
       d="M 43.194531,79.578847 C 41.44723,78.525212 37.33791,75.463348 31.076671,70.5498 L 25.164603,65.910268 22.691314,65.800841 C 21.331005,65.740656 18.163613,65.604894 15.652665,65.499145 13.141717,65.393398 10.511086,65.184631 9.8068181,65.035217 8.3323084,64.722394 7.0158632,64.027226 5.0154884,62.505084 1.5765495,59.8883 0.83588673,58.233612 0.39054463,52.172663 0.285234,50.739423 0.14511904,40.510588 0.07917807,29.441917 L -0.04071461,9.3170625 1.3915089,7.3867233 C 3.2878726,4.8308197 5.0507067,3.1449744 7.5771622,1.4712175 L 9.6572575,0.09317062 H 44.625213 79.593168 l 2.791278,2.17201408 c 4.079163,3.174174 5.017898,4.3518758 5.746626,7.2095012 0.807896,3.1680711 1.117617,10.4527141 1.122861,26.4097161 0.0041,12.369904 -0.186876,16.736008 -0.845449,19.332174 -1.032403,4.069857 -3.144045,6.946326 -6.235427,8.493877 -3.032631,1.518139 -6.125352,1.974837 -13.373447,1.974837 h -4.819871 l -5.601884,4.448471 C 49.92779,76.84398 45.301056,80.220607 44.558234,80.219429 44.392031,80.219243 43.778365,79.930904 43.194531,79.578847 Z m 10.311132,-13.055021 7.878204,-6.056091 4.666319,-0.0029 c 9.847004,-0.0062 12.419659,-0.564603 15.528096,-3.370281 l 1.527221,-1.378476 0.0013,-22.705057 0.0013,-22.705057 -2.356508,-2.4975974 -2.356507,-2.497597 H 44.541076 10.68697 L 8.324945,7.8385839 5.96292,10.366442 v 22.36036 22.36036 l 1.8873799,1.939902 c 1.0582217,1.08767 2.2247681,2.10098 2.6553631,2.306561 0.42239,0.201664 1.438811,0.455525 2.258713,0.564134 1.333519,0.176647 12.317402,0.750265 14.44936,0.754598 0.81657,0.0017 1.028371,0.142476 6.000013,3.989154 6.153766,4.761312 8.747259,6.666321 10.063686,7.392113 1.867146,1.029421 1.380541,1.291548 10.228228,-5.509798 z"
       id="path978"
       transform="matrix(0.26458333,0,0,0.26458333,109.70708,131.02837)" />
    <path
       style="fill:#23407b;stroke-width:0.186341"
       d="m 20.302666,47.039977 c -3.23386,-0.147151 -4.44645,-0.357555 -4.84782,-0.841176 -0.312721,-0.376806 -0.345072,-2.59235 -0.04228,-2.895203 0.528008,-0.528105 2.695757,-0.72561 10.11618,-0.921691 4.150752,-0.109682 13.039229,-0.173101 19.752173,-0.140932 13.649235,0.06541 13.369457,0.03899 13.751123,1.298259 0.354009,1.168018 0.385842,1.499446 0.18611,1.937806 -0.432025,0.948191 -2.120213,1.323758 -7.086947,1.576615 -3.965467,0.201883 -27.311777,0.19185 -31.828544,-0.01368 z"
       id="path1017"
       transform="matrix(0.26458333,0,0,0.26458333,109.70708,131.02837)" />
    <path
       style="fill:#23407b;stroke-width:0.186341"
       d="m 20.590708,34.759557 c -3.307164,-0.153289 -4.26125,-0.288877 -4.912544,-0.698135 -0.398948,-0.250691 -0.432921,-0.379479 -0.361297,-1.369662 0.09563,-1.322003 0.419717,-1.735329 1.592174,-2.030557 1.550986,-0.390543 7.579736,-0.554842 20.359209,-0.554842 12.855631,0 18.807912,0.164221 20.389804,0.562546 1.162427,0.292702 1.628054,0.984598 1.555873,2.31194 -0.09778,1.798078 -0.09677,1.797982 -19.616411,1.863287 -8.813942,0.02949 -17.367005,-0.0086 -19.006808,-0.08458 z"
       id="path1056"
       transform="matrix(0.26458333,0,0,0.26458333,109.70708,131.02837)" />
    <path
       style="fill:#23407b;stroke-width:0.186341"
       d="m 19.472661,23.205271 c -2.183754,-0.194167 -3.178061,-0.505646 -3.737862,-1.170932 -1.04233,-1.238738 -0.291921,-2.698635 1.595163,-3.103343 1.589708,-0.340931 6.986133,-0.570886 13.885291,-0.591687 7.029936,-0.02119 7.736955,0.05947 8.189347,0.934297 0.402363,0.778086 0.547666,1.946381 0.2997,2.40971 -0.303615,0.567313 -1.394358,1.066288 -2.901903,1.327517 -1.55545,0.26953 -14.812329,0.418271 -17.329736,0.194438 z"
       id="path1095"
       transform="matrix(0.26458333,0,0,0.26458333,109.70708,131.02837)" />
  </g>
</svg>
