<?xml version="1.0" encoding="UTF-8" standalone="no"?>
<!-- Created with Inkscape (http://www.inkscape.org/) -->

<svg
   width="17.19813mm"
   height="21.000059mm"
   viewBox="0 0 17.198129 21.000059"
   version="1.1"
   id="svg1615"
   inkscape:version="1.1 (c68e22c387, 2021-05-23)"
   sodipodi:docname="recursos.svg"
   xmlns:inkscape="http://www.inkscape.org/namespaces/inkscape"
   xmlns:sodipodi="http://sodipodi.sourceforge.net/DTD/sodipodi-0.dtd"
   xmlns="http://www.w3.org/2000/svg"
   xmlns:svg="http://www.w3.org/2000/svg">
  <sodipodi:namedview
     id="namedview1617"
     pagecolor="#ffffff"
     bordercolor="#666666"
     borderopacity="1.0"
     inkscape:pageshadow="2"
     inkscape:pageopacity="0.0"
     inkscape:pagecheckerboard="0"
     inkscape:document-units="mm"
     showgrid="false"
     fit-margin-top="0"
     fit-margin-left="0"
     fit-margin-right="0"
     fit-margin-bottom="0"
     inkscape:zoom="1.0814955"
     inkscape:cx="63.800542"
     inkscape:cy="0.92464554"
     inkscape:window-width="2560"
     inkscape:window-height="1494"
     inkscape:window-x="-11"
     inkscape:window-y="-11"
     inkscape:window-maximized="1"
     inkscape:current-layer="layer1" />
  <defs
     id="defs1612" />
  <g
     inkscape:label="Capa 1"
     inkscape:groupmode="layer"
     id="layer1"
     transform="translate(-87.990749,-148.20262)">
    <path
       style="fill:#000000;stroke-width:0.18919"
       d="m 88.411224,168.90817 -0.420475,-0.29451 v -9.91101 -9.91101 l 0.420475,-0.29451 c 0.358573,-0.25115 1.282415,-0.29451 6.275212,-0.29451 h 5.854734 l 2.28563,2.26408 2.28562,2.26407 0.0533,7.85158 c 0.0521,7.67667 0.0448,7.86012 -0.33109,8.23594 -0.37397,0.37398 -0.59594,0.38439 -8.193658,0.38439 -6.761809,0 -7.865677,-0.0395 -8.229754,-0.29451 z m 15.282276,-7.55686 v -6.33785 h -2.39728 c -3.196523,0 -3.089226,0.10615 -3.089226,-3.05636 v -2.43015 h -4.351363 -4.351364 l -0.03261,1.46622 c -0.01793,0.80642 -0.02782,2.10473 -0.02197,2.88515 0.0059,0.7804 0.02052,4.2071 0.03261,7.61489 l 0.02197,6.19595 h 7.094615 7.094618 z m -12.617167,3.00132 c -0.06532,-0.17023 -0.03213,-0.44692 0.07375,-0.61487 0.168216,-0.26682 0.846675,-0.31174 5.37472,-0.35588 4.640377,-0.0453 5.206157,-0.0178 5.411347,0.26262 0.15954,0.21799 0.17189,0.42017 0.0406,0.66539 -0.17696,0.33066 -0.51313,0.35224 -5.485102,0.35224 -4.729147,0 -5.309319,-0.0332 -5.415361,-0.3095 z m 0.240824,-2.77734 c -0.187285,-0.13694 -0.308843,-0.41363 -0.270131,-0.61486 0.06729,-0.34981 0.30184,-0.36809 5.34214,-0.41621 5.125724,-0.0489 5.790814,0.0123 5.790814,0.53296 0,0.0839 -0.13379,0.2863 -0.2973,0.4498 -0.25517,0.25517 -1.00081,0.29731 -5.261152,0.29731 -3.805427,0 -5.043322,-0.0581 -5.304371,-0.249 z m -0.119811,-3.07343 c -0.183257,-0.22081 -0.197922,-0.39008 -0.05364,-0.61912 0.169224,-0.26863 0.642985,-0.32322 3.205254,-0.36931 3.640653,-0.0655 3.902768,-0.0192 3.822666,0.67555 l -0.05923,0.51367 -3.331419,0.0516 c -2.870047,0.0444 -3.366349,0.009 -3.583635,-0.25235 z m 12.117774,-4.86377 c 0,-0.0281 -0.80879,-0.85646 -1.79731,-1.84086 l -1.797297,-1.78983 v 1.84086 1.84087 h 1.797297 c 0.98852,0 1.79731,-0.023 1.79731,-0.0511 z"
       id="path1711" />
    <path
       style="fill:#23407b;stroke-width:0.174933"
       d="m 89.127816,168.99309 c -0.192427,-0.0434 -0.526987,-0.16685 -0.743467,-0.27436 l -0.3936,-0.19548 v -9.8121 -9.8121 l 0.3936,-0.26075 c 0.325009,-0.2153 1.414855,-0.26949 6.253872,-0.31095 l 5.860269,-0.0502 2.2673,2.27629 2.2673,2.27629 0.007,7.78182 c 0.006,7.24093 -0.0149,7.80359 -0.3054,8.09499 -0.28946,0.29033 -0.8573,0.31508 -7.784537,0.33932 -4.109764,0.0144 -7.629741,-0.009 -7.822167,-0.0528 z m 14.606944,-7.65723 v -6.37185 l -2.44083,-0.057 c -1.701193,-0.0397 -2.509577,-0.12571 -2.667729,-0.28386 -0.158153,-0.15816 -0.244171,-0.96654 -0.283868,-2.66774 l -0.05695,-2.44083 H 93.837801 89.39022 v 9.09654 9.09654 h 7.172273 7.172267 z m -0.50678,-7.92896 c -0.0931,-0.16837 -0.92239,-1.05243 -1.84296,-1.96455 l -1.673729,-1.65841 v 1.96454 1.96455 h 1.842949 c 1.70304,0 1.83011,-0.0232 1.67374,-0.30613 z"
       id="path1848" />
    <path
       style="fill:#23407b;stroke-width:0.174933"
       d="m 91.332727,158.45121 c -0.134287,-0.085 -0.200384,-0.26867 -0.146882,-0.4081 0.122467,-0.31914 1.57917,-0.48154 4.319269,-0.48154 2.15757,0 2.79797,0.18924 2.578221,0.7619 -0.09693,0.25259 -0.500579,0.28737 -3.308424,0.28502 -1.758915,-10e-4 -3.307897,-0.0722 -3.442184,-0.15728 z"
       id="path1887" />
    <path
       style="fill:#23407b;stroke-width:0.174933"
       d="m 91.985491,161.63343 c -0.643398,-0.068 -1.043239,-0.51808 -0.666867,-0.75069 0.264043,-0.16318 7.852011,-0.31634 9.354796,-0.18882 1.07109,0.0909 1.22453,0.14754 1.22453,0.45206 0,0.24528 -0.15507,0.38131 -0.5248,0.46037 -0.5574,0.11919 -8.304339,0.14154 -9.387659,0.0271 z"
       id="path1926" />
    <path
       style="fill:#23407b;stroke-width:0.174933"
       d="m 91.358218,164.44305 c -0.37211,-0.15015 -0.241349,-0.58392 0.230054,-0.76315 0.251795,-0.0957 2.545543,-0.1706 5.226585,-0.1706 4.176463,0 4.807243,0.0354 5.011343,0.28133 0.19837,0.23902 0.18341,0.31793 -0.0995,0.52481 -0.26686,0.19513 -1.30741,0.24072 -5.24139,0.22965 -2.699641,-0.008 -5.006836,-0.0535 -5.127102,-0.10204 z"
       id="path1965" />
  </g>
</svg>
