<?xml version="1.0" encoding="UTF-8" standalone="no"?>
<!-- Created with Inkscape (http://www.inkscape.org/) -->

<svg
   width="13.8133mm"
   height="20.999977mm"
   viewBox="0 0 13.8133 20.999977"
   version="1.1"
   id="svg1146"
   inkscape:version="1.1 (c68e22c387, 2021-05-23)"
   sodipodi:docname="tarea.svg"
   xmlns:inkscape="http://www.inkscape.org/namespaces/inkscape"
   xmlns:sodipodi="http://sodipodi.sourceforge.net/DTD/sodipodi-0.dtd"
   xmlns="http://www.w3.org/2000/svg"
   xmlns:svg="http://www.w3.org/2000/svg">
  <sodipodi:namedview
     id="namedview1148"
     pagecolor="#ffffff"
     bordercolor="#666666"
     borderopacity="1.0"
     inkscape:pageshadow="2"
     inkscape:pageopacity="0.0"
     inkscape:pagecheckerboard="0"
     inkscape:document-units="mm"
     showgrid="false"
     fit-margin-top="0"
     fit-margin-left="0"
     fit-margin-right="0"
     fit-margin-bottom="0"
     inkscape:zoom="1.5181269"
     inkscape:cx="-151.50249"
     inkscape:cy="185.75522"
     inkscape:window-width="2560"
     inkscape:window-height="1494"
     inkscape:window-x="-11"
     inkscape:window-y="-11"
     inkscape:window-maximized="1"
     inkscape:current-layer="layer1" />
  <defs
     id="defs1143" />
  <g
     inkscape:label="Capa 1"
     inkscape:groupmode="layer"
     id="layer1"
     transform="translate(-149.67554,-62.748815)">
    <path
       style="fill:#23407b;stroke-width:0.0417368"
       d="m 156.29848,83.711179 c -0.0782,-0.03078 -0.16471,-0.104618 -0.19226,-0.16409 -0.0934,-0.201676 -0.13111,-0.696927 -0.13192,-1.732953 l -8e-4,-1.033113 -2.46788,-0.02757 c -3.04808,-0.03405 -3.58809,-0.07943 -3.64199,-0.306102 -0.12238,-0.514644 -0.18817,-3.552931 -0.18809,-8.684663 10e-5,-5.364187 0.073,-8.488371 0.20416,-8.747029 0.0968,-0.190769 0.73357,-0.218904 5.51975,-0.243874 l 4.40235,-0.02297 1.84352,1.9442 1.84352,1.9442 -9.3e-4,4.738911 c -0.002,6.301013 -0.0574,8.806216 -0.20249,9.092392 -0.10545,0.207962 -0.6631,0.251844 -3.62033,0.284884 l -2.46311,0.02751 -0.0197,1.226121 c -0.0219,1.358935 -0.046,1.511034 -0.2615,1.644064 -0.16346,0.100892 -0.44843,0.128408 -0.62209,0.06006 z m -0.32498,-5.405904 v -1.175866 l -0.76169,-0.01406 c -0.68005,-0.01255 -0.77693,-0.02347 -0.90388,-0.101918 -0.20808,-0.128578 -0.21368,-0.322318 -0.0212,-0.733378 0.32114,-0.685864 1.672,-2.528491 2.14075,-2.920071 0.23532,-0.196578 0.32562,-0.182537 0.57751,0.08981 0.37363,0.403952 1.65928,2.272796 1.90148,2.764044 0.16753,0.339737 0.1894,0.494087 0.091,0.642322 -0.1395,0.210243 -0.27083,0.242216 -1.0639,0.259035 l -0.74137,0.01573 v 1.175117 1.175119 h 2.53896 2.53897 v -5.333414 -5.333414 l -1.6554,-0.0236 c -0.93992,-0.01341 -1.74239,-0.04358 -1.85668,-0.06984 -0.3999,-0.09189 -0.60523,-0.274689 -0.71984,-0.640842 -0.0331,-0.105452 -0.0559,-0.745567 -0.0715,-1.998977 l -0.0229,-1.843854 -3.52408,-0.01095 -3.5241,-0.01095 v 7.632932 7.632929 h 2.53898 2.53897 z m 5.47988,-11.043498 c 0.30838,-0.04705 0.36076,-0.08746 0.29896,-0.230611 -0.17323,-0.401328 -2.04951,-2.429486 -2.24754,-2.429486 -0.0172,0 -0.0553,0.07236 -0.0844,0.160801 -0.0751,0.227227 -0.076,2.069491 -9.3e-4,2.292689 0.0551,0.16439 0.048,0.160652 0.41359,0.219844 0.21136,0.03422 1.37175,0.02474 1.62066,-0.01324 z"
       id="path1435" />
  </g>
</svg>
