<?xml version="1.0" encoding="UTF-8" standalone="no"?>
<!-- Created with Inkscape (http://www.inkscape.org/) -->

<svg
   width="17.261469mm"
   height="9.0683517mm"
   viewBox="0 0 17.261469 9.0683517"
   version="1.1"
   id="svg1"
   xml:space="preserve"
   inkscape:version="1.4.2 (ebf0e94, 2025-05-08)"
   sodipodi:docname="dibujo.svg"
   xmlns:inkscape="http://www.inkscape.org/namespaces/inkscape"
   xmlns:sodipodi="http://sodipodi.sourceforge.net/DTD/sodipodi-0.dtd"
   xmlns="http://www.w3.org/2000/svg"
   xmlns:svg="http://www.w3.org/2000/svg"><sodipodi:namedview
     id="namedview1"
     pagecolor="#ffffff"
     bordercolor="#000000"
     borderopacity="0.25"
     inkscape:showpageshadow="2"
     inkscape:pageopacity="0.0"
     inkscape:pagecheckerboard="true"
     inkscape:deskcolor="#d1d1d1"
     inkscape:document-units="mm"
     showgrid="false"
     inkscape:zoom="12.225646"
     inkscape:cx="22.330108"
     inkscape:cy="31.368485"
     inkscape:window-width="2560"
     inkscape:window-height="1494"
     inkscape:window-x="-11"
     inkscape:window-y="-11"
     inkscape:window-maximized="1"
     inkscape:current-layer="layer1" /><defs
     id="defs1" /><g
     inkscape:label="Capa 1"
     inkscape:groupmode="layer"
     id="layer1"
     transform="translate(-92.752043,-125.04833)"><path
       style="fill:#000000"
       d="m 94.302743,134.04242 c -0.63497,-0.13778 -1.18278,-0.5191 -1.4106,-0.98192 l -0.1401,-0.2846 0.003,-0.44537 c 0.007,-0.92217 0.59097,-2.1385 1.72415,-3.5906 0.3872,-0.49617 0.44376,-0.5487 0.34386,-0.31936 -0.79003,1.8137 -0.0183,3.19793 1.69632,3.04266 0.24085,-0.0218 2.9076,-0.71469 4.889497,-1.27039 0.19791,-0.0555 0.58843,-0.16207 0.86783,-0.23685 0.72864,-0.19501 0.72138,-0.20595 -0.13758,-0.20738 l -0.77259,-0.001 -0.005,-0.34925 c -0.003,-0.19209 -0.0172,-0.62479 -0.0318,-0.96155 l -0.0264,-0.6123 -0.31297,0.82396 c -0.17214,0.45318 -0.33785,0.88588 -0.36826,0.96155 l -0.0553,0.13759 h -0.55061 -0.550617 l 0.0572,-0.15875 c 0.0314,-0.0873 0.33704,-0.91123 0.679137,-1.83092 0.34209,-0.91969 0.70808,-1.90553 0.81332,-2.19075 l 0.19134,-0.51858 h 0.54581 c 0.38268,0 0.54581,0.0145 0.54581,0.0486 0,0.0267 -0.10527,0.3247 -0.23394,0.66212 -0.12866,0.33743 -0.22837,0.61907 -0.22158,0.62586 0.007,0.007 0.2597,-0.29027 0.56202,-0.66014 l 0.54966,-0.67248 1.68275,-0.002 c 1.30357,-0.002 1.68275,0.01 1.68275,0.05 0,0.0697 -0.21316,0.63288 -0.26425,0.6982 -0.0273,0.0348 -0.22034,0.0556 -0.59174,0.0635 l -0.55128,0.0118 -0.16369,0.4445 c -0.09,0.24447 -0.16392,0.45878 -0.1642,0.47625 -2.7e-4,0.0175 0.2281,0.0317 0.5075,0.0317 0.58937,0 0.56084,-0.0384 0.36209,0.48683 l -0.14419,0.381 -0.54217,0.0212 -0.54217,0.0212 -0.20178,0.52851 c -0.11098,0.29069 -0.20178,0.5431 -0.20178,0.56092 0,0.0178 0.28575,0.0324 0.635,0.0324 0.34925,0 0.635,0.0101 0.635,0.0225 0,0.0124 -0.0276,0.0886 -0.0613,0.16934 -0.083,0.19855 -0.22534,0.22601 2.10663,-0.40634 1.12193,-0.30422 2.21773,-0.60103 2.43511,-0.65956 0.34399,-0.0926 0.49291,-0.10583 0.42474,-0.0377 -0.0314,0.0314 -6.226,2.71787 -10.789477,4.67914 -3.42104,1.47029 -3.95166,1.62354 -4.90513,1.41665 z m 8.970107,-6.72926 c 0.40139,-1.07103 0.73957,-1.98543 0.75151,-2.032 0.0226,-0.0882 -0.25936,0.20272 -1.12287,1.15859 l -0.51124,0.56592 0.0175,0.38658 c 0.01,0.21261 0.0292,0.747 0.0435,1.18752 0.0143,0.44052 0.0408,0.7739 0.0589,0.74083 0.0181,-0.0331 0.36129,-0.93641 0.76269,-2.00744 z m -8.207007,2.3965 c 0.008,-0.0221 0.40505,-1.07993 0.88236,-2.35075 l 0.86783,-2.31058 h 0.58208 0.58209 v 0.14159 c 0,0.16859 -0.0758,1.40039 -0.10436,1.69506 -0.0288,0.29789 -0.0119,0.26276 0.39788,-0.82764 l 0.37127,-0.98785 0.56055,-0.0118 c 0.33227,-0.007 0.55463,0.004 0.54602,0.0275 -0.008,0.0216 -0.40479,1.07945 -0.88177,2.35075 l -0.86725,2.31147 h -0.60643 -0.60643 l 0.023,-0.17992 c 0.0383,-0.29953 0.11876,-1.7296 0.0984,-1.74994 -0.0104,-0.0104 -0.18135,0.41474 -0.3798,0.94485 l -0.36081,0.96384 -0.5596,0.0118 c -0.3402,0.007 -0.5539,-0.004 -0.54507,-0.0283 z m 3.15947,-0.16219 c 0.042,-0.11127 0.43742,-1.1688 0.87871,-2.35006 l 0.80234,-2.14774 0.539747,-6.7e-4 c 0.40422,-5.1e-4 0.53962,0.0126 0.53922,0.0522 -2.9e-4,0.0291 -0.38667,1.08162 -0.85862,2.33892 l -0.858077,2.286 -0.55985,0.0118 -0.55984,0.0118 z"
       id="path1" /></g></svg>
