<?xml version="1.0" ?><svg id="Layer_1" style="enable-background:new 0 0 512 512;" version="1.1" viewBox="0 0 512 512" xml:space="preserve" xmlns="http://www.w3.org/2000/svg" xmlns:xlink="http://www.w3.org/1999/xlink"><style type="text/css">
	.st0{fill:#231F20;}
</style><g><path class="st0" d="M299.2,255.2l-25.3-1.8c-2.1-9.6-5.9-18.6-11-26.6l16.7-19.1c1.8-1.8,1.8-4.8,0-6.7l-15.7-15.7   c-1.8-1.8-4.8-1.8-6.7,0L238.1,202c-8-5.1-17-8.9-26.6-11l-1.8-25.3c0-2.6-2.1-4.7-4.7-4.7h-22.2c-2.6,0-4.7,2.1-4.7,4.7l-1.8,25.3   c-9.6,2.1-18.6,5.9-26.6,11l-19.1-16.7c-1.8-1.8-4.8-1.8-6.7,0L108.2,201c-1.8,1.8-1.8,4.8,0,6.7l16.7,19.1c-5.1,8-8.9,17-11,26.6   l-25.3,1.8c-2.6,0-4.7,2.1-4.7,4.7v22.2c0,2.6,2.1,4.7,4.7,4.7l25.3,1.8c2.1,9.6,5.9,18.6,11,26.6l-16.7,19.1   c-1.8,1.8-1.8,4.8,0,6.7l15.7,15.7c1.8,1.8,4.8,1.8,6.7,0l19.1-16.7c8,5.1,17,8.9,26.6,11l1.8,25.3c0,2.6,2.1,4.7,4.7,4.7H205   c2.6,0,4.7-2.1,4.7-4.7l1.8-25.3c9.6-2.1,18.6-5.9,26.6-11l19.1,16.7c1.8,1.8,4.8,1.8,6.7,0l15.7-15.7c1.8-1.8,1.8-4.8,0-6.7   l-16.7-19.1c5.1-8,8.9-17,11-26.6l25.3-1.8c2.6,0,4.7-2.1,4.7-4.7v-22.2C303.9,257.3,301.8,255.2,299.2,255.2z M193.9,316.2   c-25,0-45.2-20.2-45.2-45.2c0-25,20.2-45.2,45.2-45.2c25,0,45.2,20.2,45.2,45.2C239.1,295.9,218.9,316.2,193.9,316.2z"/><path class="st0" d="M417.5,164.1l-15.7,5.5c-3.8-5.2-8.4-9.7-13.5-13.1l5.1-15.9c0.6-1.6-0.1-3.4-1.7-4l-13.5-5.4   c-1.6-0.6-3.4,0.1-4,1.7l-7.2,15c-6.2-1-12.5-1-18.9,0.3l-7.6-14.8c-0.7-1.6-2.5-2.3-4.1-1.6l-13.4,5.8c-1.6,0.7-2.3,2.5-1.6,4.1   l5.5,15.7c-5.2,3.8-9.7,8.4-13.1,13.5l-15.9-5.1c-1.6-0.6-3.4,0.1-4,1.7l-5.4,13.5c-0.6,1.6,0.1,3.4,1.7,4l15,7.2   c-1,6.2-1,12.5,0.3,18.9l-14.8,7.6c-1.6,0.7-2.3,2.5-1.6,4.1l5.8,13.4c0.7,1.6,2.5,2.3,4.1,1.6l15.7-5.5c3.8,5.2,8.4,9.7,13.5,13.1   l-5.1,15.9c-0.6,1.6,0.1,3.4,1.7,4l13.5,5.4c1.6,0.6,3.4-0.1,4-1.7l7.2-15c6.2,1,12.5,1,18.9-0.3l7.6,14.8c0.7,1.6,2.5,2.3,4.1,1.6   l13.4-5.8c1.6-0.7,2.3-2.5,1.6-4.1l-5.5-15.7c5.2-3.8,9.7-8.4,13.1-13.5l15.9,5.1c1.6,0.6,3.4-0.1,4-1.7l5.4-13.5   c0.6-1.6-0.1-3.4-1.7-4l-15-7.2c1-6.2,1-12.5-0.3-18.9l14.8-7.6c1.6-0.7,2.3-2.5,1.6-4.1l-5.8-13.4   C420.8,164.1,419,163.4,417.5,164.1z M369.9,228.2c-15,6.5-32.5-0.4-39-15.5s0.4-32.5,15.5-39c15-6.5,32.5,0.4,39,15.5   C391.9,204.3,384.9,221.7,369.9,228.2z"/></g></svg>