<svg width="100" height="35" viewBox="0 0 100 35" fill="none" xmlns="http://www.w3.org/2000/svg">
<path d="M30.9225 27.0369L31.0134 27.0799L30.6347 28.9799C29.9567 29.341 28.948 29.5265 27.8825 29.5265C25.6315 29.5265 25.1707 28.3411 25.1707 27.2339C25.177 26.9056 25.2065 26.5783 25.2591 26.2542L26.1794 21.5111H24.513L24.9359 19.3144H26.6087L27.4735 16.6973H30.2597L29.7459 19.3144H32.5739L32.1446 21.5111H29.3116L28.4986 25.7202C28.4631 25.9343 28.4437 26.1508 28.4405 26.3678C28.4405 26.7857 28.6185 27.1405 29.3621 27.1405C29.7333 27.1405 30.5829 27.1139 30.9225 27.0369ZM36.0823 14.9513C35.1329 14.9513 34.2529 15.7024 34.2529 16.7364C34.2546 16.9432 34.2972 17.1476 34.3782 17.3378C34.4593 17.528 34.5773 17.7003 34.7253 17.8447C34.8733 17.989 35.0484 18.1027 35.2406 18.179C35.4328 18.2553 35.6382 18.2928 35.8449 18.2893C36.0859 18.2894 36.3245 18.242 36.5471 18.1496C36.7697 18.0573 36.9719 17.9219 37.142 17.7512C37.3121 17.5805 37.4468 17.3779 37.5383 17.155C37.6299 16.9321 37.6765 16.6933 37.6755 16.4524C37.6755 15.6835 37.0077 14.9513 36.0823 14.9513ZM36.9736 19.3144H33.8275L32.3971 26.7339C32.3374 27.089 32.3053 27.4482 32.3012 27.8083C32.3012 28.6188 32.6799 29.5265 34.407 29.5265C35.494 29.5265 36.4156 29.3119 36.8486 28.8865L37.1478 27.2314H35.4359L36.9736 19.3144ZM24.7503 14.6432C23.0579 14.5943 21.364 14.6525 19.6789 14.8175L19.3103 16.7112C19.8708 16.7528 20.5084 16.8273 20.9351 16.9056L21.156 16.97L19.434 25.7795C19.3002 26.4739 19.1815 27.0546 19.1815 27.5912C19.1815 28.1277 19.405 29.5202 21.3126 29.5202C22.3226 29.5202 23.1457 29.2564 23.7025 28.9079L24.0067 27.3096H22.286L24.7503 14.6432ZM18.953 21.6121C18.953 24.8465 15.5873 25.5939 12.7063 25.3591C12.6744 25.5773 12.6584 25.7976 12.6583 26.0181C12.6583 27.0395 13.5686 27.3349 14.8399 27.3349C15.6984 27.3349 16.7033 27.1051 17.5757 26.8185L17.6161 26.8488L17.6767 28.9508C16.9192 29.2033 15.456 29.5215 13.7074 29.5215C12.0523 29.5215 9.41504 28.6024 9.41504 25.681C9.41504 20.6703 13.1343 19.0568 15.3979 19.0568C17.4153 19.0619 18.953 19.9873 18.953 21.6159V21.6121ZM16.0115 21.881C16.0115 21.2927 15.5406 21.1424 15.1189 21.1424C13.8956 21.1424 13.1671 22.386 12.9866 23.3581C13.8299 23.4629 16.0115 23.247 16.0115 21.881ZM84.916 23.2003C84.916 26.441 82.9478 29.5265 79.3611 29.5265C76.898 29.5265 74.9425 28.4257 74.9425 25.5889C74.9425 22.6726 77.0559 19.0619 80.7259 19.0619C82.8695 19.0619 84.916 20.2852 84.916 23.2003ZM81.5503 23.2457C81.5503 22.4074 81.2978 21.6298 80.4936 21.6298C78.9672 21.6298 78.3183 24.3706 78.3183 25.6482C78.3183 26.3905 78.5708 27.0559 79.3952 27.0559C80.7309 27.0571 81.5477 24.7847 81.5477 23.2457H81.5503ZM85.724 26.7289C85.3188 26.7269 84.9291 26.8849 84.6398 27.1685C84.3504 27.4522 84.1847 27.8387 84.1787 28.2439C84.1807 28.4184 84.2172 28.5909 84.286 28.7513C84.3549 28.9117 84.4548 29.0569 84.58 29.1786C84.7052 29.3003 84.8532 29.396 85.0155 29.4603C85.1778 29.5245 85.3512 29.5561 85.5258 29.553C85.935 29.5507 86.3265 29.3862 86.6145 29.0955C86.9026 28.8049 87.0636 28.4119 87.0622 28.0027C87.0507 27.6569 86.9036 27.3295 86.6528 27.0912C86.4019 26.8529 86.0674 26.7227 85.7215 26.7289H85.724ZM94.2886 24.2797C94.2886 26.4474 91.9909 26.9927 90.0492 26.7769C90.0492 26.8716 90.0492 26.9574 90.0492 27.0546C90.0429 27.5596 90.2563 28.0785 91.573 28.0785C92.2043 28.0651 92.8291 27.9482 93.4226 27.7326L93.4402 29.1604C92.6152 29.4238 91.7535 29.5542 90.8875 29.5467C89.5607 29.5467 87.8096 28.9471 87.8096 26.9864C87.8096 23.6295 90.3989 22.5337 91.9164 22.5337C93.1688 22.535 94.2886 23.1889 94.2886 24.2797ZM92.3141 24.4249C92.3141 24.031 91.9998 23.9275 91.7195 23.9275C90.8976 23.9275 90.2866 24.7165 90.2045 25.4361C90.7625 25.5056 92.3141 25.3376 92.3141 24.4261V24.4249ZM74.3264 23.0362C74.3264 27.1846 71.0768 29.5253 69.125 29.5253C68.4738 29.5356 67.8232 29.4797 67.1833 29.3586L66.2453 34.2027H63.757C63.0942 34.2027 63.1585 33.7697 63.2659 33.319L65.5383 21.6184L65.3199 21.5553C64.8919 21.4783 64.2531 21.4025 63.6938 21.3609L64.0625 19.4671C65.4653 19.3013 66.8787 19.2422 68.2905 19.2904L67.9118 20.9468H67.9787C69.1048 19.4608 70.1716 19.0631 71.2611 19.0631C72.1486 19.0619 74.3264 19.7828 74.3264 23.0374V23.0362ZM71.0515 23.2886C71.0515 22.1827 70.7662 21.6298 70.159 21.6298C69.0619 21.6298 68.4559 22.8783 68.0216 24.8806L67.5949 27.1834C67.8207 27.2284 68.0501 27.2533 68.2804 27.2579C70.1223 27.2516 71.0515 24.618 71.0515 23.2886ZM61.583 27.2427L62.7318 21.4227C63.0651 19.7007 61.7042 19.0619 60.7965 19.0619C59.3509 19.0619 58.2917 19.7992 57.3878 20.7814H57.3714C57.1605 19.7032 56.4498 19.0619 55.4183 19.0619C54.3869 19.0619 53.2784 19.5732 52.0576 21.1652H51.9844L52.3265 19.3144C50.9148 19.2651 49.5013 19.3237 48.0985 19.4899L47.7299 21.3836C48.238 21.4206 48.7437 21.4851 49.2448 21.5767L49.4064 21.6007L47.9836 28.7627C47.918 29.1554 48.0442 29.3788 48.4722 29.3788H51.0363L52.2482 23.2041C52.5121 22.6511 53.3176 21.9946 53.7304 21.9946C54.243 21.9946 54.3225 22.3961 54.2455 22.8417L53.0701 28.7627C53.0108 29.0809 52.9679 29.3788 53.4627 29.3788H56.1139L57.2678 23.2369C57.6744 22.5615 58.4672 21.9984 58.9444 21.9984C59.3156 21.9984 59.4014 22.3481 59.3042 22.8455L58.4041 27.5003C58.192 28.5936 58.6035 29.5265 60.27 29.5265C61.2106 29.5265 62.1385 29.3687 62.8745 28.9067L63.2242 27.2402L61.583 27.2427ZM97.5332 24.7519C97.5332 24.3201 97.8071 24.0512 98.2907 24.0512C98.7767 24.0651 99.2416 24.2528 99.6011 24.5802L100 23.2937C99.3777 22.7332 98.4548 22.5362 97.8538 22.5362C96.152 22.5362 95.2165 23.3253 95.2165 24.6521C95.2165 26.061 97.2516 26.6721 97.2516 27.5558C97.2516 27.8361 96.9259 28.081 96.4942 28.081C95.917 28.0745 95.3537 27.9032 94.8706 27.5874L94.483 28.9508C94.8782 29.2879 95.9614 29.5543 96.8275 29.5543C98.5949 29.5543 99.5973 28.7615 99.5973 27.5432C99.5973 26.3615 97.5269 25.5081 97.5269 24.7519H97.5332ZM47.2413 21.6159C47.2413 24.8503 43.8755 25.5977 40.9933 25.3629C40.9625 25.5812 40.9469 25.8014 40.9466 26.0219C40.9466 27.0432 41.8543 27.3387 43.1256 27.3387C43.9879 27.3387 44.989 27.1089 45.8627 26.8223L45.9043 26.8526L45.9674 28.9559C45.21 29.2084 43.7417 29.5265 41.9944 29.5265C40.3381 29.5265 37.702 28.6075 37.702 25.6861C37.702 20.6753 41.42 19.0619 43.6899 19.0619C45.6998 19.0619 47.2413 19.9873 47.2413 21.6159ZM44.2972 21.881C44.2972 21.2927 43.8263 21.1424 43.4059 21.1424C42.18 21.1424 41.4566 22.386 41.2761 23.3581C42.1182 23.4629 44.2972 23.247 44.2972 21.881Z" fill="#191C20"/>
<path d="M60.3519 11.4024C57.2073 8.49173 53.0788 6.87729 48.7939 6.88275C48.448 6.88275 48.1033 6.89538 47.7625 6.91558C46.8715 6.95968 45.9852 7.07152 45.1113 7.25013C43.0489 5.19124 40.5994 3.56105 37.9038 2.45359C35.2083 1.34613 32.3202 0.78332 29.4061 0.797629C26.0744 0.794706 22.7844 1.5377 19.7773 2.97209C16.7702 4.40649 14.1224 6.4959 12.0281 9.08703C11.9398 9.19056 11.8552 9.29787 11.7757 9.40391C8.96538 9.5486 6.28764 10.6438 4.18144 12.5099C2.07524 14.3761 0.665567 16.9025 0.183519 19.6749C-0.298529 22.4473 0.175656 25.3012 1.52834 27.7687C2.88102 30.2363 5.03192 32.1711 7.62842 33.2558C5.96922 32.468 4.5274 31.2871 3.42817 29.8156C3.37136 29.7398 3.31581 29.6628 3.26026 29.5846C2.92057 29.1058 2.61634 28.6028 2.35002 28.0797C1.50036 26.3621 1.10294 24.4562 1.19535 22.5422C1.28776 20.6281 1.86694 18.7693 2.87812 17.1416C3.88929 15.5139 5.29901 14.171 6.97393 13.2401C8.64884 12.3092 10.5336 11.8209 12.4498 11.8216H12.5533C14.3006 9.35957 16.5675 7.31164 19.1937 5.82265C21.82 4.33367 24.7413 3.44001 27.7511 3.20491C30.7609 2.96981 33.7856 3.39901 36.6112 4.46215C39.4368 5.52529 41.9942 7.19638 44.1026 9.3572C44.1316 9.3875 44.1632 9.41528 44.1922 9.44558C47.5126 8.36837 51.0754 8.28438 54.4429 9.20391C57.8104 10.1234 60.8361 12.0065 63.1482 14.6217C62.35 13.4393 61.411 12.3583 60.3519 11.4024Z" fill="#FFAC27"/>
<path d="M63.151 14.6229C60.8388 12.0077 57.8132 10.1247 54.4457 9.20513C51.0782 8.28559 47.5154 8.36959 44.195 9.44679C44.1659 9.41649 44.1344 9.38872 44.1053 9.35842C41.997 7.1976 39.4396 5.52651 36.614 4.46337C33.7884 3.40023 30.7637 2.97103 27.7539 3.20613C24.7441 3.44123 21.8227 4.33488 19.1965 5.82387C16.5703 7.31285 14.3033 9.36079 12.5561 11.8228H12.4526C10.5363 11.8218 8.65144 12.3097 6.97634 13.2404C5.30124 14.1711 3.89129 15.5138 2.87985 17.1414C1.86842 18.769 1.28896 20.6278 1.19629 22.5418C1.10361 24.4559 1.5008 26.3619 2.35026 28.0796C2.61438 28.6019 2.9165 29.104 3.25419 29.582C3.30974 29.6603 3.36529 29.7373 3.4221 29.813C4.42433 31.1525 5.71091 32.2532 7.18932 33.0361L7.22846 33.0563C7.35471 33.1245 7.48853 33.1914 7.62235 33.2533C8.05223 33.459 8.49503 33.6365 8.94795 33.7848L8.96436 33.7141L8.97572 33.6623C6.85788 32.6206 5.15494 30.8928 4.14405 28.7601C3.13316 26.6274 2.87385 24.2153 3.40832 21.9165C3.94278 19.6176 5.23956 17.5674 7.08759 16.0993C8.93563 14.6313 11.2261 13.8319 13.5863 13.8314C13.7946 13.8314 14.0016 13.8402 14.2062 13.8516C14.5796 13.2826 14.9842 12.7347 15.4181 12.2103C16.9878 10.326 18.9222 8.77847 21.105 7.66063C23.2879 6.5428 25.6742 5.87776 28.1206 5.70548C30.567 5.5332 33.023 5.85722 35.341 6.65809C37.659 7.45896 39.7911 8.72015 41.6094 10.3659C41.6448 10.3987 41.6826 10.429 41.718 10.4606C42.3459 11.0392 42.9331 11.6606 43.4753 12.3202C46.7433 10.6371 50.4637 10.0431 54.0933 10.6248C57.7229 11.2064 61.0713 12.9334 63.6497 15.5534L63.6838 15.5875L63.834 15.4259C63.6126 15.154 63.385 14.8864 63.151 14.6229Z" fill="#191C20"/>
</svg>
