<?xml version="1.0" encoding="UTF-8" standalone="no"?>
<!-- Created with Inkscape (http://www.inkscape.org/) -->

<svg
   version="1.1"
   id="svg9"
   width="522.49835"
   height="522.2641"
   viewBox="0 0 522.49835 522.2641"
   sodipodi:docname="rueda-dentada.svg"
   inkscape:version="1.1 (c68e22c387, 2021-05-23)"
   xmlns:inkscape="http://www.inkscape.org/namespaces/inkscape"
   xmlns:sodipodi="http://sodipodi.sourceforge.net/DTD/sodipodi-0.dtd"
   xmlns="http://www.w3.org/2000/svg"
   xmlns:svg="http://www.w3.org/2000/svg">
  <defs
     id="defs13" />
  <sodipodi:namedview
     id="namedview11"
     pagecolor="#ffffff"
     bordercolor="#666666"
     borderopacity="1.0"
     inkscape:pageshadow="2"
     inkscape:pageopacity="0.0"
     inkscape:pagecheckerboard="true"
     showgrid="false"
     objecttolerance="20"
     fit-margin-top="0"
     fit-margin-left="0"
     fit-margin-right="0"
     fit-margin-bottom="0"
     inkscape:zoom="1.1114503"
     inkscape:cx="46.335857"
     inkscape:cy="325.70058"
     inkscape:window-width="2560"
     inkscape:window-height="1494"
     inkscape:window-x="-11"
     inkscape:window-y="-11"
     inkscape:window-maximized="1"
     inkscape:current-layer="g15" />
  <g
     inkscape:groupmode="layer"
     inkscape:label="Image"
     id="g15"
     transform="translate(-11.901641,-16.400272)">
    <path
       style="fill:#000000;stroke-width:1.06667"
       d="m 212.96552,537.36094 c -5.09539,-1.83941 -8.76326,-5.19689 -11.72089,-10.72901 -2.1226,-3.97023 -2.3071,-6.12817 -2.65546,-31.05983 l -0.37437,-26.79316 -4.21558,-1.39126 -4.21558,-1.39128 -17.82517,17.65601 c -9.80382,9.71082 -19.50515,18.51133 -21.55848,19.55671 -5.19741,2.64607 -14.30983,2.49573 -19.73333,-0.32556 -2.50609,-1.30366 -20.62021,-18.64906 -43.898535,-42.03556 -33.36678,-33.52185 -39.81558,-40.49055 -40.79405,-44.08273 -3.23129,-11.86289 -0.8907,-16.11626 20.97891,-38.12331 l 17.75736,-17.86895 -1.65278,-4.53721 -1.65278,-4.53719 -27.63573,-0.53333 c -31.34343,-0.60489 -32.20095,-0.81711 -38.28762,-9.47527 l -3.21477,-4.57293 -0.30233,-56.99614 c -0.20014,-37.73121 0.0797,-58.41506 0.82806,-61.19407 1.44378,-5.36179 5.49097,-10.15865 11.07511,-13.12658 4.12675,-2.19333 6.05827,-2.3613 31.19232,-2.71249 l 26.79316,-0.37437 1.39154,-4.21641 1.39154,-4.21641 -18.17235,-18.35766 c -14.43388,-14.58108 -18.56129,-19.40002 -20.063,-23.42447 -2.23963,-6.00203 -1.63499,-13.18256 1.53857,-18.27164 1.14151,-1.83052 19.98216,-21.16255 41.86809,-42.960082 33.511845,-33.37648 40.466055,-39.81531 44.059285,-40.79405 11.91156,-3.244555 16.16281,-0.90535 38.10805,20.96852 l 17.84139,17.78336 4.55861,-1.66059 4.55861,-1.66058 0.53333,-27.63573 c 0.60489,-31.343432 0.81711,-32.200959 9.47527,-38.28763 l 4.57293,-3.214766 56.99614,-0.30233 c 37.73121,-0.200139 58.41506,0.07974 61.19407,0.828055 5.36179,1.443781 10.15865,5.490973 13.12658,11.075118 2.19333,4.126747 2.3613,6.058263 2.71249,31.192313 l 0.37437,26.79316 4.23741,1.39848 4.23742,1.39847 17.80333,-17.74535 c 21.90374,-21.83242 26.16262,-24.173912 38.06998,-20.9305 3.59323,0.97874 10.54744,7.41757 44.05928,40.79405 21.88593,21.797532 40.72658,41.129562 41.8681,42.960082 3.17355,5.08908 3.77819,12.26961 1.53856,18.27164 -1.50204,4.02538 -5.63351,8.8478 -20.10044,23.46212 l -18.20978,18.39532 1.65335,4.53802 1.65335,4.53801 27.63545,0.53333 c 29.63458,0.57192 31.0066,0.82004 36.38455,6.57988 5.65315,6.05459 5.65091,6.02805 5.65091,67.02012 0,48.67547 -0.23119,57.15516 -1.65091,60.55303 -2.11577,5.06376 -5.26795,8.4099 -10.61576,11.26899 -3.97023,2.1226 -6.12817,2.3071 -31.05983,2.65546 l -26.79316,0.37437 -1.39126,4.21558 -1.39128,4.21558 17.71995,17.83131 c 21.82886,21.96604 24.17169,26.22687 20.9415,38.08567 -0.97846,3.59218 -7.42727,10.56088 -40.79404,44.08273 -22.65387,22.75914 -41.45968,40.78478 -43.89854,42.07734 -5.36312,2.84239 -14.441,2.97171 -19.73333,0.28111 -2.05333,-1.04391 -11.77159,-9.86006 -21.59614,-19.59144 l -17.86279,-17.69342 -4.53721,1.65304 -4.53719,1.65306 -0.53333,27.63545 c -0.60489,31.34315 -0.81712,32.20072 -9.4753,38.28736 l -4.57296,3.21476 -57.77587,0.23808 c -47.05909,0.19393 -58.53658,-0.0365 -61.877,-1.2424 z m 91.03446,-65.32557 c 0,-21.32523 0.17497,-23.49133 2.24253,-27.76232 3.00988,-6.21759 7.04913,-9.0602 19.0908,-13.43505 5.57334,-2.02486 14.45334,-5.732 19.73334,-8.2381 11.05934,-5.24923 18.58293,-6.07178 25.06666,-2.74053 2.05333,1.05497 10.81559,8.94664 19.47169,17.53703 l 15.73836,15.6189 21.58665,-21.58666 21.58666,-21.58665 -15.6189,-15.73836 c -8.59039,-8.6561 -16.48206,-17.41836 -17.53703,-19.47169 -3.31561,-6.45329 -2.50786,-14.02931 2.63893,-24.75077 2.45123,-5.10626 6.15879,-13.98626 8.23901,-19.73333 4.47014,-12.34974 7.28,-16.37836 13.53574,-19.4067 4.27099,-2.06756 6.43709,-2.24253 27.76232,-2.24253 h 23.1299 v -30.93333 -30.93333 h -23.1299 c -21.32523,0 -23.49133,-0.17497 -27.76232,-2.24253 -6.21759,-3.00988 -9.0602,-7.04913 -13.43505,-19.0908 -2.02486,-5.57334 -5.732,-14.45334 -8.2381,-19.73334 -5.24923,-11.05934 -6.07178,-18.58293 -2.74053,-25.06666 1.05497,-2.05333 8.94664,-10.81559 17.53703,-19.47169 l 15.6189,-15.73836 -21.58666,-21.58665 -21.58665,-21.58666 -15.73836,15.6189 c -8.6561,8.59039 -17.41836,16.48206 -19.47169,17.53703 -6.45329,3.31561 -14.02931,2.50786 -24.75077,-2.63893 -5.10626,-2.45123 -13.98626,-6.15879 -19.73333,-8.23901 -12.34974,-4.47014 -16.37836,-7.28 -19.4067,-13.53573 -2.06756,-4.27101 -2.24253,-6.4371 -2.24253,-27.762342 v -23.12989 h -30.93333 -30.93333 v 23.12989 c 0,21.325242 -0.17497,23.491332 -2.24253,27.762342 -3.00988,6.21758 -7.04913,9.06019 -19.0908,13.43504 -5.57334,2.02486 -14.45334,5.732 -19.73334,8.2381 -11.05934,5.24923 -18.58293,6.07178 -25.06666,2.74053 -2.05333,-1.05497 -10.81559,-8.94664 -19.47169,-17.53703 l -15.73836,-15.6189 -21.58665,21.58666 -21.586655,21.58665 15.618895,15.73836 c 8.59039,8.6561 16.48206,17.41836 17.53703,19.47169 3.31561,6.45329 2.50786,14.02931 -2.63893,24.75077 -2.45123,5.10626 -6.15879,13.98626 -8.23901,19.73333 -4.47014,12.34974 -7.28,16.37836 -13.53573,19.4067 -4.27101,2.06756 -6.437105,2.24253 -27.762335,2.24253 h -23.12989 v 30.93333 30.93333 h 23.12989 c 21.32523,0 23.491325,0.17497 27.762335,2.24253 6.21758,3.00988 9.06019,7.04913 13.43504,19.0908 2.02486,5.57334 5.732,14.45334 8.2381,19.73334 5.24923,11.05934 6.07178,18.58293 2.74053,25.06666 -1.05497,2.05333 -8.94664,10.81559 -17.53703,19.47169 l -15.618895,15.73836 21.586655,21.58665 21.58665,21.58666 15.73836,-15.6189 c 8.6561,-8.59039 17.41836,-16.48206 19.47169,-17.53703 6.48373,-3.33125 14.00732,-2.5087 25.06666,2.74053 5.28,2.5061 14.16,6.21324 19.73334,8.2381 12.04167,4.37485 16.08092,7.21746 19.0908,13.43505 2.06756,4.27099 2.24253,6.43709 2.24253,27.76232 v 23.1299 h 30.93333 30.93333 z m -49.88282,-79.73004 c -25.211,-4.79989 -45.81583,-15.49729 -63.05455,-32.73601 -14.93811,-14.93811 -25.05613,-32.70738 -30.79939,-54.08987 -2.45402,-9.13646 -2.77035,-12.3238 -2.77035,-27.91417 0,-15.59037 0.31633,-18.77771 2.77035,-27.91417 5.74326,-21.38249 15.86128,-39.15176 30.79939,-54.08987 14.93811,-14.93811 32.70738,-25.05613 54.08987,-30.79939 9.13646,-2.45402 12.3238,-2.77035 27.91417,-2.77035 15.59037,0 18.77771,0.31633 27.91417,2.77035 21.38249,5.74326 39.15176,15.86128 54.08987,30.79939 14.93811,14.93811 25.05613,32.70738 30.79939,54.08987 2.45402,9.13646 2.77035,12.3238 2.77035,27.91417 0,15.59037 -0.31633,18.77771 -2.77035,27.91417 -11.466,42.68858 -42.63178,73.82095 -84.88926,84.79824 -12.89226,3.34904 -34.9177,4.30201 -46.86366,2.02764 z m 41.88282,-45.75864 c 21.35756,-6.95068 39.06807,-24.8747 46.55356,-47.11474 2.15325,-6.39751 2.51002,-9.52862 2.49158,-21.86667 -0.0194,-13.00622 -0.31097,-15.22495 -3.01187,-22.92309 -7.73938,-22.0588 -23.53915,-37.99516 -45.37433,-45.76663 -8.44483,-3.00564 -10.3198,-3.27324 -23.05894,-3.29097 -11.54015,-0.0161 -15.20888,0.39649 -21.86666,2.45897 -22.02285,6.82231 -40.15317,24.49417 -47.69805,46.49191 -2.63964,7.6961 -2.96036,10.13012 -2.96425,22.49648 -0.003,11.51172 0.41651,15.22529 2.47391,21.86666 7.74975,25.01666 29.25009,44.58514 55.12172,50.16889 2.34667,0.50647 9.78667,0.77133 16.53333,0.58858 9.67749,-0.26213 14.06784,-0.91844 20.8,-3.10939 z"
       id="path117" />
  </g>
</svg>
