<?xml version="1.0" encoding="UTF-8" standalone="no"?>
<!-- Created with Inkscape (http://www.inkscape.org/) -->

<svg
   width="100.7387mm"
   height="113.79494mm"
   viewBox="0 0 100.7387 113.79494"
   version="1.1"
   id="svg1753"
   inkscape:version="1.1 (c68e22c387, 2021-05-23)"
   sodipodi:docname="html5.svg"
   xmlns:inkscape="http://www.inkscape.org/namespaces/inkscape"
   xmlns:sodipodi="http://sodipodi.sourceforge.net/DTD/sodipodi-0.dtd"
   xmlns="http://www.w3.org/2000/svg"
   xmlns:svg="http://www.w3.org/2000/svg">
  <sodipodi:namedview
     id="namedview1755"
     pagecolor="#ffffff"
     bordercolor="#666666"
     borderopacity="1.0"
     inkscape:pageshadow="2"
     inkscape:pageopacity="0.0"
     inkscape:pagecheckerboard="true"
     inkscape:document-units="mm"
     showgrid="false"
     fit-margin-top="0"
     fit-margin-left="0"
     fit-margin-right="0"
     fit-margin-bottom="0"
     inkscape:zoom="0.42760943"
     inkscape:cx="133.29921"
     inkscape:cy="481.74803"
     inkscape:window-width="1707"
     inkscape:window-height="996"
     inkscape:window-x="-6"
     inkscape:window-y="-6"
     inkscape:window-maximized="1"
     inkscape:current-layer="layer1" />
  <defs
     id="defs1750" />
  <g
     inkscape:label="Capa 1"
     inkscape:groupmode="layer"
     id="layer1"
     transform="translate(-70.07076,-21.0375)">
    <path
       style="fill:#000000;stroke-width:0.282222"
       d="M 99.302646,129.85552 78.708905,124.45305 74.427827,74.64083 C 72.073233,47.24411 70.06828,23.97136 69.972375,22.92361 l -0.174372,-1.905 h 50.626187 50.62619 l -0.12452,1.19945 c -0.0685,0.65969 -2.07382,23.91078 -4.45628,51.66908 -2.38246,27.75831 -4.37457,50.50742 -4.42692,50.55359 -0.16694,0.14725 -41.59848,10.87916 -41.87804,10.84756 -0.14753,-0.0167 -9.53542,-2.46142 -20.861974,-5.43277 z m 34.408594,-19.27734 c 6.99272,-1.81035 12.75745,-3.32485 12.81052,-3.36556 0.0993,-0.0762 3.42117,-38.1373 3.42767,-39.27294 l 0.004,-0.63336 -23.35389,-0.0722 -23.35388,-0.0722 -0.32571,-4.23333 c -0.17914,-2.32833 -0.39661,-5.02708 -0.48327,-5.99722 l -0.15756,-1.76389 h 24.38129 24.3813 l 0.1626,-1.48167 c 0.0894,-0.81492 0.29011,-3.06916 0.44593,-5.00944 0.15583,-1.94028 0.35771,-4.13103 0.44863,-4.86834 l 0.16531,-1.34055 H 120.45086 88.637926 l 0.170575,1.62278 c 0.09382,0.89252 0.817888,9.30627 1.609047,18.69722 0.791159,9.39094 1.488818,17.23319 1.550354,17.42722 0.08824,0.27824 4.753299,0.35278 22.079878,0.35278 h 21.968 l -0.92338,7.69055 c -0.50786,4.22981 -0.95972,7.93738 -1.00414,8.23904 -0.0705,0.47903 -0.96985,0.73507 -7.10122,2.02175 l -7.02047,1.47327 -6.38509,-1.43517 c -3.5118,-0.78935 -6.42179,-1.46067 -6.46664,-1.49182 -0.0448,-0.0311 -0.33388,-2.20011 -0.64228,-4.81991 -0.30841,-2.6198 -0.62338,-5.04902 -0.69994,-5.39827 l -0.13921,-0.635 h -6.649269 -6.649268 l 0.148118,0.77611 c 0.08147,0.42686 0.501227,5.0695 0.932798,10.31698 0.431572,5.24748 0.851259,9.63554 0.932638,9.75125 0.185784,0.26415 25.016163,6.76026 25.957263,6.79091 0.38034,0.0124 6.41284,-1.45867 13.40555,-3.26901 z"
       id="path1849" />
    <path
       style="fill:#ff6600;stroke-width:2.33858"
       d="M 375.42745,489.61406 C 334.3151,478.7357 300.17047,469.32794 299.55048,468.70795 298.93049,468.08797 291.33676,384.73775 282.67552,283.48524 274.01428,182.23273 266.45679,94.917224 265.88109,89.450787 l -1.04672,-9.938976 h 190.37235 190.37236 l -1.45706,14.616142 c -0.80138,8.038877 -8.47429,95.605797 -17.05088,194.593157 l -15.59384,179.977 -10.49258,3.07799 c -21.35286,6.26385 -145.89099,38.02767 -148.30591,37.82588 -1.3759,-0.11506 -36.13902,-9.10955 -77.25136,-19.98792 z M 507.1942,418.65459 c 24.92828,-6.36597 45.88184,-12.13219 46.56347,-12.81384 0.68165,-0.68165 3.63818,-28.34367 6.57006,-61.47114 2.9319,-33.1275 5.98331,-67.33526 6.78091,-76.01725 l 1.45015,-15.78543 h -89.00774 -89.00774 l -0.0204,-8.76969 c -0.0112,-4.82332 -0.68395,-14.29458 -1.49503,-21.04724 l -1.47469,-12.27756 h 92.36564 92.36565 l 2.0963,-25.72441 2.09633,-25.72441 H 455.44724 c -113.70715,0 -121.02998,0.24762 -121.03093,4.09252 -0.003,10.4093 12.11633,139.7633 13.19547,140.84504 0.6715,0.67313 37.96722,1.55994 82.87937,1.97071 74.66612,0.68289 81.65212,1.08339 81.58437,4.67716 -0.19995,10.61083 -6.8045,52.63956 -8.5061,54.1302 -1.06888,0.93636 -12.99324,3.99037 -26.49855,6.78663 l -24.55512,5.08415 -23.38583,-5.36557 -23.38583,-5.3656 -1.76258,-15.14611 c -3.25955,-28.00979 -0.53818,-25.66976 -29.85284,-25.66976 -22.90058,0 -25.6791,0.44293 -25.67293,4.09252 0.011,6.50447 6.86995,76.07045 7.55739,76.64976 0.3414,0.28772 19.56325,5.46186 42.71522,11.49806 23.15196,6.03624 43.14685,11.34657 44.43307,11.8008 7.24876,2.55979 23.43088,-0.0809 64.03278,-10.44954 z"
       id="path2023"
       transform="scale(0.26458333)" />
  </g>
</svg>
