<?xml version="1.0" encoding="UTF-8" standalone="no"?>
<!-- Created with Inkscape (http://www.inkscape.org/) -->

<svg
   width="99.956947mm"
   height="100mm"
   viewBox="0 0 99.956949 99.999997"
   version="1.1"
   id="svg944"
   inkscape:version="1.1 (c68e22c387, 2021-05-23)"
   sodipodi:docname="usuario.svg"
   xmlns:inkscape="http://www.inkscape.org/namespaces/inkscape"
   xmlns:sodipodi="http://sodipodi.sourceforge.net/DTD/sodipodi-0.dtd"
   xmlns="http://www.w3.org/2000/svg"
   xmlns:svg="http://www.w3.org/2000/svg">
  <sodipodi:namedview
     id="namedview946"
     pagecolor="#ffffff"
     bordercolor="#666666"
     borderopacity="1.0"
     inkscape:pageshadow="2"
     inkscape:pageopacity="0.0"
     inkscape:pagecheckerboard="true"
     inkscape:document-units="mm"
     showgrid="false"
     fit-margin-top="0"
     fit-margin-left="0"
     fit-margin-right="0"
     fit-margin-bottom="0"
     inkscape:zoom="0.42760943"
     inkscape:cx="51.448819"
     inkscape:cy="224.50394"
     inkscape:window-width="1280"
     inkscape:window-height="730"
     inkscape:window-x="-6"
     inkscape:window-y="-6"
     inkscape:window-maximized="1"
     inkscape:current-layer="layer1" />
  <defs
     id="defs941" />
  <g
     inkscape:label="Capa 1"
     inkscape:groupmode="layer"
     id="layer1"
     transform="translate(-63.26103,-18.095554)">
    <path
       style="fill:#000000;stroke-width:0.223649"
       d="m 109.43049,118.03071 c -5.39701,-0.65054 -6.81369,-0.91412 -10.287844,-1.91406 -16.694055,-4.80493 -29.92593,-18.453495 -34.331702,-35.412868 -1.242885,-4.78431 -1.546041,-7.234063 -1.54988,-12.524345 -0.0039,-5.371996 0.32474,-8.059232 1.5727,-12.859814 2.270713,-8.734854 6.494552,-16.045669 13.052911,-22.592579 6.598732,-6.587214 13.851338,-10.774048 22.629725,-13.063838 4.7056,-1.22743 7.46534,-1.567652 12.71613,-1.567652 8.38189,0 14.81043,1.484634 22.25307,5.13921 14.61685,7.177342 24.80291,21.222129 27.32479,37.67608 0.54412,3.550089 0.54345,10.771041 -0.002,14.31354 -1.71176,11.131066 -6.7215,20.952604 -14.61442,28.651396 -2.63212,2.56738 -4.36199,3.95907 -7.50408,6.03707 -5.9622,3.94305 -12.89284,6.59833 -20.07763,7.69216 -2.25581,0.34343 -9.55858,0.62144 -11.18244,0.4257 z m 8.22792,-7.25907 c 5.09744,-0.55526 9.57341,-1.83221 14.13699,-4.03319 2.88283,-1.39036 7.76301,-4.47101 7.98048,-5.03773 0.15118,-0.39398 -1.06799,-3.940737 -1.98636,-5.778637 -3.12238,-6.248686 -8.76749,-11.262931 -15.33512,-13.621333 -5.64182,-2.025952 -12.7616,-2.027887 -18.44374,-0.0051 -6.496127,2.312647 -12.225873,7.40394 -15.335119,13.626354 -0.918369,1.8379 -2.137542,5.384656 -1.98636,5.778636 0.217474,0.56672 5.097646,3.64737 7.980485,5.03773 7.166994,3.45657 15.255264,4.87559 22.988744,4.03319 z M 81.59177,94.234543 c 1.514944,-3.63313 4.261094,-7.58118 7.467047,-10.73515 2.66313,-2.619952 5.396108,-4.574358 8.68594,-6.211485 l 2.515973,-1.252023 -1.453148,-1.468087 c -7.745031,-7.82464 -7.744875,-20.436945 4.47e-4,-28.29128 5.440631,-5.517275 13.151481,-7.440499 20.544641,-5.1242 7.61335,2.385291 13.05269,9.019944 13.99915,17.075508 0.69945,5.95319 -1.50899,12.240117 -5.77093,16.428533 l -1.35639,1.332993 2.66523,1.378418 c 7.59356,3.927282 13.10875,9.92665 16.43071,17.873189 l 0.37397,0.894601 0.77675,-0.894601 c 0.42722,-0.492025 1.52089,-2.001658 2.43039,-3.354734 8.45529,-12.579112 9.60646,-28.694415 3.02404,-42.333829 C 141.5655,28.085476 116.03534,19.086433 94.702223,29.381948 73.252057,39.733951 64.255399,65.273195 74.546865,86.59792 c 1.916057,3.970222 5.813234,9.749013 6.258476,9.280157 0.09914,-0.104401 0.453033,-0.843994 0.786429,-1.643534 z M 116.2518,73.179692 c 4.27683,-0.92045 8.18708,-4.61275 9.5587,-9.025936 0.62515,-2.011438 0.66146,-5.204714 0.0814,-7.15677 -1.27936,-4.305159 -4.36978,-7.55927 -8.49377,-8.94364 -7.12661,-2.392324 -14.64366,1.603519 -16.82492,8.94364 -0.920138,3.096364 -0.36573,7.173346 1.36859,10.064203 3.00267,5.005032 8.52085,7.364423 14.31002,6.118503 z"
       id="path1040" />
  </g>
</svg>
