<svg width="32" height="32" viewBox="0 0 32 32" fill="none" xmlns="http://www.w3.org/2000/svg">
<rect width="32" height="32" rx="16" fill="white"/>
<path d="M7.86963 22.9709L7.93852 23.1653C7.9297 23.1431 7.90449 23.075 7.86963 22.9709ZM10.5957 18.5633C10.7167 17.5183 11.1275 16.9331 11.9016 16.3333C13.0093 15.5209 14.3929 15.9805 14.3929 15.9805V13.2544C14.7293 13.2454 15.0658 13.2662 15.3985 13.3166V16.8248C15.3985 16.8248 14.0153 16.3652 12.9076 17.178C12.1339 17.7774 11.7223 18.363 11.6017 19.408C11.5979 19.9755 11.7 20.7173 12.17 21.3587C12.0538 21.2966 11.9354 21.2257 11.8147 21.1462C10.7793 20.4208 10.5907 19.3324 10.5957 18.5633ZM21.1115 8.21385C20.3496 7.34267 20.0614 6.4631 19.9573 5.84521H20.9158C20.9158 5.84521 20.7247 7.46533 22.1176 9.05856L22.1369 9.07998C21.7615 8.8336 21.4172 8.54279 21.1115 8.21385ZM25.7291 10.6837V14.1214C25.7291 14.1214 24.5059 14.0714 23.6007 13.8311C22.3368 13.4951 21.5244 12.9797 21.5244 12.9797C21.5244 12.9797 20.9633 12.6121 20.9179 12.5865V19.6853C20.9179 20.0805 20.8142 21.0676 20.4979 21.8909C20.085 22.9679 19.4477 23.6749 19.3306 23.8194C19.3306 23.8194 18.5556 24.775 17.1883 25.4185C15.9559 25.999 14.8739 25.9843 14.5504 25.999C14.5504 25.999 12.68 26.0763 10.9969 24.935C10.6329 24.6834 10.2932 24.3985 9.98203 24.084L9.99044 24.0903C11.674 25.2315 13.544 25.1543 13.544 25.1543C13.8679 25.1396 14.9499 25.1543 16.1819 24.5738C17.5479 23.9302 18.3241 22.9746 18.3241 22.9746C18.4401 22.8301 19.0802 22.1232 19.4914 21.0458C19.8069 20.2229 19.9115 19.2354 19.9115 18.8401V11.7422C19.9568 11.7683 20.5176 12.1358 20.5176 12.1358C20.5176 12.1358 21.3304 12.6516 22.5943 12.9872C23.4999 13.2275 24.7227 13.2775 24.7227 13.2775V10.5837C25.141 10.6816 25.4977 10.7081 25.7291 10.6837Z" fill="#EE1D52"/>
<path d="M24.7231 10.5837V13.2766C24.7231 13.2766 23.5003 13.2267 22.5947 12.9864C21.3308 12.6504 20.518 12.135 20.518 12.135C20.518 12.135 19.9573 11.7674 19.9119 11.7414V18.841C19.9119 19.2362 19.8081 20.2238 19.4919 21.0466C19.0789 22.1241 18.4417 22.831 18.3245 22.9755C18.3245 22.9755 17.5491 23.9311 16.1823 24.5746C14.9503 25.1551 13.8683 25.1404 13.5444 25.1551C13.5444 25.1551 11.6744 25.2324 9.99086 24.0911L9.98246 24.0848C9.80471 23.9052 9.6374 23.7156 9.48134 23.5169C8.94411 22.8335 8.61479 22.0253 8.53204 21.7947C8.5319 21.7938 8.5319 21.7928 8.53204 21.7918C8.39889 21.3911 8.11914 20.4288 8.15736 19.4967C8.22499 17.8522 8.77945 16.8428 8.92604 16.59C9.31429 15.9004 9.81926 15.2834 10.4185 14.7665C10.9472 14.3205 11.5466 13.9656 12.1919 13.7164C12.8895 13.4239 13.6365 13.267 14.3929 13.2544V15.9805C14.3929 15.9805 13.0093 15.5226 11.9021 16.3333C11.1279 16.9331 10.7171 17.5183 10.5961 18.5633C10.5911 19.3324 10.7797 20.4208 11.8143 21.1466C11.935 21.2264 12.0534 21.2973 12.1696 21.3592C12.3504 21.6043 12.5704 21.8179 12.8207 21.9913C13.8313 22.6588 14.6781 22.7054 15.761 22.2719C16.4831 21.9821 17.0266 21.3289 17.2786 20.6052C17.437 20.1532 17.4349 19.6983 17.4349 19.2278V5.84521H19.9552C20.0593 6.4631 20.3475 7.34267 21.1094 8.21385C21.4151 8.54279 21.7594 8.8336 22.1348 9.07998C22.2457 9.19969 22.8127 9.79154 23.5407 10.1549C23.9171 10.3427 24.3138 10.4866 24.7231 10.5837Z" fill="black"/>
<path d="M7.52881 20.9575V20.9596L7.59098 21.1365C7.58383 21.1159 7.56073 21.0533 7.52881 20.9575Z" fill="#69C9D0"/>
<path d="M12.1921 13.7163C11.5468 13.9655 10.9474 14.3204 10.4187 14.7664C9.81927 15.2845 9.31444 15.9028 8.92667 16.5936C8.78008 16.8457 8.22562 17.8559 8.15799 19.5003C8.11977 20.4324 8.39952 21.3947 8.53267 21.7955C8.53253 21.7964 8.53253 21.7974 8.53267 21.7984C8.61668 22.0269 8.94474 22.8351 9.48197 23.5206C9.63803 23.7193 9.80534 23.9089 9.98309 24.0885C9.41359 23.6946 8.90568 23.2184 8.47597 22.6755C7.94335 21.9979 7.61487 21.1982 7.52919 20.9621C7.52908 20.9604 7.52908 20.9587 7.52919 20.9571V20.9541C7.39561 20.5538 7.11502 19.5911 7.15409 18.6577C7.22171 17.0133 7.77617 16.0039 7.92277 15.751C8.31042 15.0601 8.81527 14.4418 9.41477 13.9238C9.94342 13.4776 10.5428 13.1227 11.1882 12.8737C11.5908 12.7067 12.0101 12.5835 12.4391 12.5062C13.0855 12.3933 13.7457 12.3836 14.3952 12.4772V13.2543C13.6381 13.2667 12.8904 13.4235 12.1921 13.7163Z" fill="#69C9D0"/>
<path d="M19.9571 5.84513H17.4369V19.2282C17.4369 19.6986 17.4369 20.1523 17.2806 20.6055C17.0261 21.3288 16.4846 21.982 15.763 22.2718C14.6797 22.707 13.8329 22.6587 12.8227 21.9912C12.5719 21.8186 12.3513 21.6057 12.1699 21.3612C13.0306 21.8203 13.801 21.8123 14.7553 21.4292C15.4765 21.1394 16.0188 20.4862 16.2725 19.7625C16.4313 19.3105 16.4292 18.8556 16.4292 18.3856V5H19.9092C19.9092 5 19.8702 5.33268 19.9571 5.84513ZM24.723 9.83892V10.5837C24.3144 10.4863 23.9184 10.3425 23.5426 10.1548C22.8147 9.79145 22.2476 9.19961 22.1367 9.0799C22.2654 9.16438 22.3989 9.24124 22.5366 9.31008C23.4217 9.75197 24.2933 9.88386 24.723 9.83892Z" fill="#69C9D0"/>
</svg>
